<svg id="SvgjsSvg1001" width="288" height="288" xmlns="http://www.w3.org/2000/svg" version="1.1" xmlns:xlink="http://www.w3.org/1999/xlink" xmlns:svgjs="http://svgjs.com/svgjs"><defs id="SvgjsDefs1002"></defs><g id="SvgjsG1008"><svg xmlns="http://www.w3.org/2000/svg" viewBox="0 0 128 128" width="288" height="288"><defs><linearGradient id="a" x1="0" x2="128" y1="0" y2="128" gradientUnits="userSpaceOnUse"><stop stop-color="#ffea00" class="svgShape stopColor0072ff-2"></stop><stop offset="1" stop-color="#ffea00" class="svgShape stopColor3a8dff-3"></stop></linearGradient></defs><rect width="120" height="120" x="4" y="4" fill="url(#a)" rx="24" class="svgShape colorgradient-4 selectable"></rect><circle cx="64" cy="44" r="10" stroke="#ffffff" stroke-width="5" fill="none" class="svgStroke colorStrokeffffff-5 selectable"></circle><path stroke="#ffffff" stroke-linecap="round" stroke-width="5" d="M48 84C48 72 54 66 64 66C74 66 80 72 80 84" fill="none" class="svgStroke colorStrokeffffff-6 selectable"></path><circle cx="40" cy="50" r="8" stroke="#ffffff" stroke-width="5" fill="none" class="svgStroke colorStrokeffffff-7 selectable"></circle><path stroke="#ffffff" stroke-linecap="round" stroke-width="5" d="M28 84C28 74 33 69 40 69C47 69 52 74 52 84" fill="none" class="svgStroke colorStrokeffffff-8 selectable"></path><circle cx="88" cy="50" r="8" stroke="#ffffff" stroke-width="5" fill="none" class="svgStroke colorStrokeffffff-9 selectable"></circle><path stroke="#ffffff" stroke-linecap="round" stroke-width="5" d="M76 84C76 74 81 69 88 69C95 69 100 74 100 84" fill="none" class="svgStroke colorStrokeffffff-10 selectable"></path></svg></g></svg>