<svg width="128" height="128" viewBox="0 0 128 128" fill="none" xmlns="http://www.w3.org/2000/svg">
  <defs>
    <linearGradient id="bg" x1="0" y1="0" x2="128" y2="128" gradientUnits="userSpaceOnUse">
      <stop stop-color="#0072FF"/>
      <stop offset="1" stop-color="#3A8DFF"/>
    </linearGradient>
  </defs>

  <rect x="4" y="4" width="120" height="120" rx="24" fill="url(#bg)"/>

  <!-- Center person -->
  <circle cx="64" cy="44" r="10" stroke="white" stroke-width="5"/>
  <path d="M48 84C48 72 54 66 64 66C74 66 80 72 80 84"
        stroke="white"
        stroke-width="5"
        stroke-linecap="round"/>

  <!-- Left person -->
  <circle cx="40" cy="50" r="8" stroke="white" stroke-width="5"/>
  <path d="M28 84C28 74 33 69 40 69C47 69 52 74 52 84"
        stroke="white"
        stroke-width="5"
        stroke-linecap="round"/>

  <!-- Right person -->
  <circle cx="88" cy="50" r="8" stroke="white" stroke-width="5"/>
  <path d="M76 84C76 74 81 69 88 69C95 69 100 74 100 84"
        stroke="white"
        stroke-width="5"
        stroke-linecap="round"/>
</svg>
