<?xml version="1.0" encoding="UTF-8"?>
<svg version="1.1" xmlns="http://www.w3.org/2000/svg" width="650" height="365">
<path d="M0 0 C4.59966813 -0.844837 7.38667534 -0.05031251 11.1875 2.4375 C13.70437604 4.24492105 16.15719829 6.12142862 18.609375 8.015625 C32.07309738 18.3551687 46.59505978 26.88922908 62 34 C62.78181641 34.36335449 63.56363281 34.72670898 64.36914062 35.10107422 C120.33752331 60.83555606 188.44058859 67.17429875 249 57 C250.59255615 56.74259033 250.59255615 56.74259033 252.21728516 56.47998047 C282.2143659 51.51669001 310.87645815 43.01835154 338.01171875 29.1796875 C341.26405539 27.89575853 343.53532341 27.68186614 347 28 C348.875 29.125 348.875 29.125 350 31 C350.59107258 34.79975227 350.26433469 36.55419984 348.29296875 39.87890625 C323.61992663 73.4628256 271.35403862 88.30129019 232.625 94.3125 C228.42185421 94.92052393 224.21435142 95.4756841 220 96 C218.61240479 96.17571533 218.61240479 96.17571533 217.19677734 96.35498047 C183.94326954 100.42474056 149.37496704 97.61878333 117 89 C116.15131348 88.77586426 115.30262695 88.55172852 114.42822266 88.32080078 C83.5314099 79.98636642 54.25990258 66.05506138 30 45 C29.17113281 44.28199219 28.34226563 43.56398438 27.48828125 42.82421875 C24.9557815 40.58591834 22.47047301 38.3065373 20 36 C19.1028125 35.16855469 18.205625 34.33710938 17.28125 33.48046875 C12.16325154 28.5709281 7.59201201 23.50684333 3.375 17.8125 C2.94896484 17.25473877 2.52292969 16.69697754 2.08398438 16.12231445 C-1.07339617 11.68728713 -1.85629953 8.32244428 -2 3 C-1.34 2.01 -0.68 1.02 0 0 Z " fill="#0F1319" transform="translate(131,238)"/>
<path d="M0 0 C1.093125 -0.01998047 2.18625 -0.03996094 3.3125 -0.06054688 C4.364375 -0.05990234 5.41625 -0.05925781 6.5 -0.05859375 C7.4590625 -0.06044678 8.418125 -0.0622998 9.40625 -0.06420898 C12.82473308 0.59702809 13.84850607 1.72602259 16 4.4375 C16.50057125 7.27953434 16.50057125 7.27953434 16.50120544 10.63087463 C16.51103958 11.90257507 16.52087372 13.17427551 16.53100586 14.48451233 C16.52163414 15.89145165 16.51185484 17.29838831 16.50170898 18.70532227 C16.50549245 20.18871575 16.51099272 21.67210569 16.51808167 23.15548706 C16.532049 27.18233282 16.52085833 31.20875192 16.50437045 35.23557401 C16.49052737 39.44757507 16.49697908 43.65955118 16.50050354 47.87156677 C16.50320596 54.94398888 16.48972639 62.01624131 16.46655273 69.08862305 C16.43993246 77.26960406 16.438199 85.45030151 16.4499411 93.631311 C16.46071281 101.49729074 16.45453727 109.36316775 16.44038582 117.22913933 C16.43462176 120.57877971 16.43471195 123.92834502 16.43945122 127.27798653 C16.44421673 131.22035871 16.43413736 135.16241958 16.41249657 139.10473251 C16.40692303 140.55315412 16.4064686 142.00160561 16.41144943 143.45002937 C16.41738641 145.42372956 16.40308597 147.39746002 16.38768005 149.37110901 C16.38525016 150.47667428 16.38282026 151.58223955 16.38031673 152.7213068 C16 155.4375 16 155.4375 14.62030125 157.29337978 C12.36123339 158.88854316 10.74806656 158.81001803 8 158.80078125 C7.030625 158.80013672 6.06125 158.79949219 5.0625 158.79882812 C3.5465625 158.7746582 3.5465625 158.7746582 2 158.75 C0.4840625 158.75483398 0.4840625 158.75483398 -1.0625 158.75976562 C-8.59928571 158.70464286 -8.59928571 158.70464286 -12 156.4375 C-12.94921875 153.3984375 -12.94921875 153.3984375 -13.6875 149.8125 C-13.93886719 148.62398437 -14.19023437 147.43546875 -14.44921875 146.2109375 C-14.63097656 145.29570312 -14.81273437 144.38046875 -15 143.4375 C-15.59683594 144.1903125 -16.19367188 144.943125 -16.80859375 145.71875 C-23.63996545 154.19403468 -30.93528423 159.85288086 -42.0625 161.375 C-52.03457258 161.89569366 -60.3943809 158.96313744 -68.12890625 152.71875 C-79.3465347 142.33126863 -85.33268347 125.37096039 -86.17700195 110.2722168 C-86.60222693 86.77980751 -86.48048914 63.38518054 -69.109375 45.2734375 C-61.22577769 38.41178799 -52.54503592 35.96950032 -42.2421875 36.203125 C-32.38078051 36.91599779 -26.76671599 41.38985536 -20 48.4375 C-18.98831775 49.76199115 -17.98625614 51.09396861 -17 52.4375 C-16.99635437 51.8302861 -16.99270874 51.2230722 -16.98895264 50.59745789 C-16.94719641 44.28699234 -16.87789979 37.97725881 -16.79248047 31.66723633 C-16.76422546 29.31119095 -16.7430336 26.95504998 -16.72900391 24.59887695 C-16.70763755 21.21515804 -16.6610183 17.83259403 -16.609375 14.44921875 C-16.60814636 13.39288742 -16.60691772 12.33655609 -16.60565186 11.24821472 C-16.58593323 10.26742447 -16.5662146 9.28663422 -16.54589844 8.27612305 C-16.53257477 6.98039619 -16.53257477 6.98039619 -16.51898193 5.65849304 C-16 3.4375 -16 3.4375 -14.12799072 1.66033936 C-9.86839397 -0.78741687 -4.78693406 -0.03104733 0 0 Z M-48.1875 70.0625 C-55.70812915 84.06643014 -56.15801624 103.24889146 -52 118.4375 C-49.62195058 124.83579901 -46.93919187 129.89682792 -41 133.4375 C-36.45013634 134.76003806 -32.89830144 134.66588172 -28.3125 133.5 C-21.93895754 129.5315679 -18.58440415 123.83164495 -16.5234375 116.703125 C-13.15443549 102.12087751 -13.15691236 83.59016931 -21 70.4375 C-24.28969751 66.57210542 -27.25237832 63.82742651 -32.3671875 63.1015625 C-39.58645328 62.98911288 -43.42579541 64.34845449 -48.1875 70.0625 Z " fill="#0F1319" transform="translate(412,35.5625)"/>
<path d="M0 0 C1.051875 0.00064453 2.10375 0.00128906 3.1875 0.00195312 C4.280625 0.01806641 5.37375 0.03417969 6.5 0.05078125 C7.593125 0.04755859 8.68625 0.04433594 9.8125 0.04101562 C17.96537267 0.09596759 17.96537267 0.09596759 22.5 2.36328125 C22.83 29.09328125 23.16 55.82328125 23.5 83.36328125 C32.18462501 71.54969419 32.18462501 71.54969419 40.6875 59.61328125 C41.69107309 58.18986922 42.69498004 56.76669251 43.69921875 55.34375 C45.44035236 52.87354993 47.17149055 50.39690363 48.89453125 47.9140625 C49.58933594 46.92792969 50.28414062 45.94179687 51 44.92578125 C51.5878125 44.08144531 52.175625 43.23710938 52.78125 42.3671875 C55.35349622 39.36818225 57.42280468 38.46044148 61.36914062 38.10449219 C62.99625977 38.1011084 62.99625977 38.1011084 64.65625 38.09765625 C65.84347656 38.09507813 67.03070313 38.0925 68.25390625 38.08984375 C69.49011719 38.09757812 70.72632813 38.1053125 72 38.11328125 C73.23621094 38.10554688 74.47242188 38.0978125 75.74609375 38.08984375 C76.93332031 38.09242187 78.12054688 38.095 79.34375 38.09765625 C80.42849609 38.09991211 81.51324219 38.10216797 82.63085938 38.10449219 C85.44974584 38.35874845 87.10599723 38.90574752 89.5 40.36328125 C89.1087221 45.7073136 86.09315739 48.90507798 82.875 52.92578125 C81.69831769 54.43158799 80.5225771 55.93813097 79.34765625 57.4453125 C78.7252002 58.2388916 78.10274414 59.0324707 77.46142578 59.85009766 C74.03600098 64.23910972 70.66995785 68.67218001 67.3125 73.11328125 C66.66522949 73.95834229 66.01795898 74.80340332 65.35107422 75.67407227 C64.74666504 76.47385498 64.14225586 77.2736377 63.51953125 78.09765625 C62.71672729 79.15291504 62.71672729 79.15291504 61.89770508 80.22949219 C60.32153671 82.63573001 59.21637427 84.56454686 58.5 87.36328125 C59.29503227 90.12111158 59.29503227 90.12111158 60.91796875 92.89453125 C61.50449219 93.99804932 62.09101563 95.10156738 62.6953125 96.23852539 C63.01918945 96.82763702 63.34306641 97.41674866 63.67675781 98.02371216 C64.70109791 99.88802969 65.70281463 101.76295246 66.69921875 103.64233398 C68.15593571 106.38646964 69.62070824 109.12607296 71.09130859 111.86279297 C75.02130051 119.19036028 78.87625404 126.55683809 82.70449829 133.93798828 C83.98951347 136.40564363 85.28965101 138.86492284 86.59057617 141.32421875 C87.38405475 142.8485661 88.17681472 144.3732878 88.96875 145.8984375 C89.34195877 146.59514053 89.71516754 147.29184357 90.09968567 148.00965881 C92.5838246 152.84918407 92.5838246 152.84918407 92.14953613 155.51268005 C91.5 157.36328125 91.5 157.36328125 90.5 158.36328125 C86.42191156 158.62942709 82.3401851 158.63454091 78.25415039 158.65844727 C76.20585688 158.67562728 74.15919178 158.71949114 72.11132812 158.76367188 C70.82033203 158.77205078 69.52933594 158.78042969 68.19921875 158.7890625 C66.41777466 158.81093628 66.41777466 158.81093628 64.6003418 158.83325195 C60.80261126 158.25756637 59.80150646 157.38740919 57.5 154.36328125 C55.97949219 151.76049805 55.97949219 151.76049805 54.546875 148.8125 C53.74672974 147.18513916 53.74672974 147.18513916 52.93041992 145.52490234 C52.37588135 144.37844238 51.82134277 143.23198242 51.25 142.05078125 C50.09659055 139.70236877 48.94164755 137.35470884 47.78515625 135.0078125 C47.22586426 133.87037598 46.66657227 132.73293945 46.09033203 131.56103516 C43.03562283 125.41879059 39.78813006 119.38324142 36.5 113.36328125 C27.65858801 121.88098022 23.15686224 128.84584146 22.66479492 141.18286133 C22.63841024 143.4572854 22.63699444 145.73214538 22.66137695 148.0065918 C22.67817505 149.58307495 22.67817505 149.58307495 22.6953125 151.19140625 C22.72641113 152.13918945 22.75750977 153.08697266 22.78955078 154.06347656 C22.64622314 155.20187988 22.64622314 155.20187988 22.5 156.36328125 C17.62873683 159.61079003 12.22409973 158.69113559 6.5 158.67578125 C5.29859375 158.69189453 4.0971875 158.70800781 2.859375 158.72460938 C1.70953125 158.72525391 0.5596875 158.72589844 -0.625 158.7265625 C-1.67945312 158.72954346 -2.73390625 158.73252441 -3.8203125 158.7355957 C-6.5 158.36328125 -6.5 158.36328125 -8.14325047 157.22195435 C-10.0964412 154.54618924 -9.8804967 152.54615127 -9.88768005 149.25219727 C-9.89758469 147.97345734 -9.90748932 146.69471741 -9.91769409 145.37722778 C-9.91345583 143.9572134 -9.90889795 142.53719994 -9.90405273 141.1171875 C-9.90975394 139.62408944 -9.91671723 138.13099573 -9.92485046 136.63790894 C-9.94282361 132.5801007 -9.94160589 128.52250821 -9.93590808 124.46467209 C-9.93282257 121.07977133 -9.93890147 117.6949124 -9.94494683 114.31001759 C-9.95900375 106.32676034 -9.95742076 98.34361008 -9.94604492 90.36035156 C-9.93455884 82.11743771 -9.94864482 73.87484903 -9.9754414 65.63197803 C-9.99757245 58.56014363 -10.00424177 51.4884115 -9.99836498 44.41654491 C-9.99498839 40.19046939 -9.99745688 35.9646024 -10.01461601 31.73855591 C-10.03004224 27.76578427 -10.02617833 23.79349581 -10.00731087 19.82074356 C-10.00361308 18.36102518 -10.006768 16.90127135 -10.01719666 15.44158554 C-10.03032463 13.45254829 -10.016502 11.46338699 -10.00120544 9.47436523 C-10.00099616 8.3601268 -10.00078688 7.24588837 -10.00057125 6.09788513 C-9.5 3.36328125 -9.5 3.36328125 -7.63078403 1.50460815 C-4.93608557 0.06122778 -3.05014056 -0.00948044 0 0 Z " fill="#0E1319" transform="translate(69.5,35.63671875)"/>
<path d="M0 0 C14.41006494 10.49199984 21.32676977 25.21995309 24.34375 42.33984375 C26.9165393 59.23933478 26.9165393 59.23933478 23.87284851 63.72285461 C21.11751275 65.69374164 18.96392049 65.42229383 15.60083008 65.40307617 C14.95665634 65.40351425 14.3124826 65.40395233 13.64878845 65.40440369 C11.52205979 65.40231559 9.39612198 65.37898513 7.26953125 65.35546875 C5.79408702 65.34987283 4.31863722 65.34560271 2.84318542 65.34260559 C-1.03839534 65.33115637 -4.91963883 65.30168887 -8.80108643 65.26849365 C-12.76252683 65.23779424 -16.72402178 65.22410055 -20.68554688 65.20898438 C-28.45718494 65.17681894 -36.22854519 65.12562205 -44 65.0625 C-43.5554842 67.28923159 -43.10188905 69.51415182 -42.64453125 71.73828125 C-42.39292236 72.97747314 -42.14131348 74.21666504 -41.88208008 75.4934082 C-40.39764212 81.49977371 -38.2862059 86.26619537 -33.375 90.125 C-27.50457482 91.75567366 -21.49938322 92.2866877 -15.9375 89.5625 C-15.298125 89.0675 -14.65875 88.5725 -14 88.0625 C-13.34 88.0625 -12.68 88.0625 -12 88.0625 C-11.731875 87.381875 -11.46375 86.70125 -11.1875 86 C-10.795625 85.030625 -10.40375 84.06125 -10 83.0625 C-9.54625 81.845625 -9.0925 80.62875 -8.625 79.375 C-7 76.0625 -7 76.0625 -5.23291016 74.80371094 C-2.3433692 73.84453246 -0.61078702 74.23049998 2.3515625 74.890625 C3.87523437 75.22513672 3.87523437 75.22513672 5.4296875 75.56640625 C6.48414063 75.81261719 7.53859375 76.05882812 8.625 76.3125 C10.21828125 76.65861328 10.21828125 76.65861328 11.84375 77.01171875 C19.72371459 78.78621459 19.72371459 78.78621459 22 81.0625 C21.17158099 91.35233609 15.11759839 99.98818446 7.78515625 106.8671875 C-3.58132606 115.82646247 -16.85595414 118.57097358 -31.08203125 117.921875 C-43.70875914 116.36677598 -55.75934552 109.71951697 -64 100.0625 C-76.01384797 82.81345092 -79.10993455 62.75922615 -76.50390625 42.13671875 C-74.23946184 30.63538812 -69.99579717 20.46545318 -63 11.0625 C-62.2575 10.03125 -61.515 9 -60.75 7.9375 C-44.94471944 -8.58620241 -19.48884613 -12.44584728 0 0 Z M-36.625 23.6875 C-41.24374747 29.69187171 -42.93399125 35.60043873 -44 43.0625 C-32.12 43.0625 -20.24 43.0625 -8 43.0625 C-8.95735948 33.48890521 -9.99663585 27.62188694 -16.25 20.5 C-23.96761738 16.46579092 -30.467979 17.530479 -36.625 23.6875 Z " fill="#0F1319" transform="translate(567,78.9375)"/>
<path d="M0 0 C9.97635702 7.99242239 13.7830808 19.25559721 15.75 31.52734375 C16.38738036 38.05947748 16.26818463 44.62059224 16.2109375 51.17578125 C16.20854636 53.00900136 16.20764917 54.84222396 16.2081604 56.67544556 C16.20506197 60.47910339 16.18870912 64.28237633 16.16162109 68.0859375 C16.12730421 72.96622975 16.1200037 77.84610832 16.12151146 82.72650719 C16.12096922 86.49421143 16.11003113 90.26182491 16.09550858 94.02949905 C16.08914366 95.83088115 16.0852024 97.63227349 16.08372116 99.43366623 C16.07940404 101.93431168 16.06194801 104.43450891 16.04052734 106.93505859 C16.04143372 107.67884262 16.04234009 108.42262665 16.04327393 109.18894958 C15.97899231 114.29835144 15.97899231 114.29835144 13.75 116.52734375 C11.07617187 116.78613281 11.07617187 116.78613281 7.71875 116.79296875 C6.51605469 116.79554688 5.31335938 116.798125 4.07421875 116.80078125 C2.81222656 116.79304688 1.55023438 116.7853125 0.25 116.77734375 C-1.01199219 116.78507812 -2.27398437 116.7928125 -3.57421875 116.80078125 C-4.77691406 116.79820312 -5.97960937 116.795625 -7.21875 116.79296875 C-8.32669922 116.79071289 -9.43464844 116.78845703 -10.57617188 116.78613281 C-13.25 116.52734375 -13.25 116.52734375 -15.25 114.52734375 C-15.51501465 111.53807068 -15.51501465 111.53807068 -15.53710938 107.65014648 C-15.54394241 106.94254684 -15.55077545 106.2349472 -15.55781555 105.50590515 C-15.57142265 103.96612675 -15.58046366 102.4263029 -15.58552551 100.8864727 C-15.59381041 98.44312212 -15.61431623 96.0001461 -15.63806152 93.55690002 C-15.68635737 88.35960367 -15.71919067 83.16226924 -15.75 77.96484375 C-15.78575227 71.96472261 -15.82794022 65.96478111 -15.88594055 59.9648304 C-15.90586884 57.56925607 -15.91430372 55.17382253 -15.92224121 52.77818298 C-15.76557484 40.18136066 -15.76557484 40.18136066 -20.0625 28.58984375 C-23.67289279 25.18575912 -26.2543009 24.60636749 -31.1875 24.21484375 C-35.18440823 24.34280503 -37.89765711 25.24165542 -41.25 27.52734375 C-46.34208689 33.7510055 -47.49516932 40.19788956 -47.52124023 48.08325195 C-47.52908035 49.16261269 -47.52908035 49.16261269 -47.53707886 50.26377869 C-47.54725505 51.81277114 -47.55308802 53.36179717 -47.55496025 54.91082191 C-47.55864324 57.36105277 -47.57541763 59.81088589 -47.59571838 62.2610321 C-47.65097786 69.22220497 -47.681931 76.18343284 -47.70629883 83.14477539 C-47.72213544 87.41289377 -47.75229817 91.68072197 -47.79106331 95.94869041 C-47.80273277 97.5742098 -47.80864383 99.19978091 -47.80874443 100.82534218 C-47.8089356 103.0900086 -47.82713098 105.3538668 -47.84936523 107.6184082 C-47.85697121 109.55197929 -47.85697121 109.55197929 -47.86473083 111.52461243 C-47.99186966 112.51551376 -48.11900848 113.5064151 -48.25 114.52734375 C-51.71096156 116.83465145 -53.07941097 116.78429093 -57.16015625 116.79296875 C-58.89168945 116.79683594 -58.89168945 116.79683594 -60.65820312 116.80078125 C-61.86412109 116.79304688 -63.07003906 116.7853125 -64.3125 116.77734375 C-66.12717773 116.78894531 -66.12717773 116.78894531 -67.97851562 116.80078125 C-69.13158203 116.79820312 -70.28464844 116.795625 -71.47265625 116.79296875 C-72.53234619 116.79071289 -73.59203613 116.78845703 -74.68383789 116.78613281 C-77.25 116.52734375 -77.25 116.52734375 -79.25 114.52734375 C-79.51729965 112.50924778 -79.51729965 112.50924778 -79.54193115 109.97914124 C-79.55598495 109.02151382 -79.57003876 108.06388641 -79.58451843 107.07723999 C-79.58982071 106.02315948 -79.59512299 104.96907898 -79.60058594 103.88305664 C-79.61384415 102.77567642 -79.62710236 101.6682962 -79.64076233 100.52735901 C-79.681985 96.85159903 -79.70862266 93.17589864 -79.734375 89.5 C-79.75815298 86.95413173 -79.78251333 84.40826884 -79.80743408 81.8624115 C-79.85742271 76.52003948 -79.90037807 71.17767357 -79.93798828 65.83520508 C-79.98161033 59.6570978 -80.03967312 53.47925056 -80.10523582 47.30134016 C-80.16783347 41.36191206 -80.21905156 35.42242563 -80.26544952 29.48284721 C-80.28639017 26.953784 -80.31036913 24.42474411 -80.33739471 21.8957386 C-80.37370877 18.36416011 -80.39709432 14.8327293 -80.41699219 11.30102539 C-80.43709099 9.72294098 -80.43709099 9.72294098 -80.45759583 8.11297607 C-80.46037033 7.15252884 -80.46314484 6.1920816 -80.46600342 5.20252991 C-80.47262371 4.36721772 -80.479244 3.53190554 -80.48606491 2.67128086 C-80.25 0.52734375 -80.25 0.52734375 -78.25 -2.47265625 C-74.60443406 -3.6878449 -71.23305836 -3.65671513 -67.4375 -3.66015625 C-66.73818359 -3.67240234 -66.03886719 -3.68464844 -65.31835938 -3.69726562 C-60.91496282 -3.70962315 -57.27914784 -3.28547165 -53.25 -1.47265625 C-51.24706653 1.53174396 -50.75728374 3.2372832 -50.125 6.71484375 C-49.95742187 7.61589844 -49.78984375 8.51695313 -49.6171875 9.4453125 C-49.49601562 10.13238281 -49.37484375 10.81945312 -49.25 11.52734375 C-48.734375 10.84671875 -48.21875 10.16609375 -47.6875 9.46484375 C-35.36065661 -5.3905829 -17.5390002 -11.47951923 0 0 Z " fill="#0F1319" transform="translate(297.25,77.47265625)"/>
<path d="M0 0 C1.14533203 -0.01998047 2.29066406 -0.03996094 3.47070312 -0.06054688 C4.57220703 -0.05990234 5.67371094 -0.05925781 6.80859375 -0.05859375 C8.31957642 -0.06137329 8.31957642 -0.06137329 9.86108398 -0.06420898 C13.36273308 0.58611988 14.36780531 1.66158446 16.5625 4.4375 C17.06307125 7.27953434 17.06307125 7.27953434 17.06370544 10.63087463 C17.07353958 11.90257507 17.08337372 13.17427551 17.09350586 14.48451233 C17.08413414 15.89145165 17.07435484 17.29838831 17.06420898 18.70532227 C17.06799245 20.18871575 17.07349272 21.67210569 17.08058167 23.15548706 C17.094549 27.18233282 17.08335833 31.20875192 17.06687045 35.23557401 C17.05302737 39.44757507 17.05947908 43.65955118 17.06300354 47.87156677 C17.06570596 54.94398888 17.05222639 62.01624131 17.02905273 69.08862305 C17.00243246 77.26960406 17.000699 85.45030151 17.0124411 93.631311 C17.02321281 101.49729074 17.01703727 109.36316775 17.00288582 117.22913933 C16.99712176 120.57877971 16.99721195 123.92834502 17.00195122 127.27798653 C17.00671673 131.22035871 16.99663736 135.16241958 16.97499657 139.10473251 C16.96942303 140.55315412 16.9689686 142.00160561 16.97394943 143.45002937 C16.97988641 145.42372956 16.96558597 147.39746002 16.95018005 149.37110901 C16.94775016 150.47667428 16.94532026 151.58223955 16.94281673 152.7213068 C16.5625 155.4375 16.5625 155.4375 15.20575047 157.29238796 C12.73066118 159.01717344 10.6747197 158.82635137 7.6875 158.8359375 C6.53765625 158.83980469 5.3878125 158.84367188 4.203125 158.84765625 C3.00171875 158.83605469 1.8003125 158.82445312 0.5625 158.8125 C-0.63890625 158.82410156 -1.8403125 158.83570313 -3.078125 158.84765625 C-4.80289062 158.84185547 -4.80289062 158.84185547 -6.5625 158.8359375 C-7.61695313 158.83255371 -8.67140625 158.82916992 -9.7578125 158.82568359 C-12.4375 158.4375 -12.4375 158.4375 -14.08117104 157.29518127 C-16.03481918 154.61938825 -15.81510712 152.62044534 -15.81845093 149.32641602 C-15.8269104 148.04767609 -15.83536987 146.76893616 -15.84408569 145.45144653 C-15.83825258 144.03143184 -15.83210806 142.61141839 -15.82568359 141.19140625 C-15.82974797 139.69830948 -15.8350891 138.20521573 -15.84161377 136.71212769 C-15.85530924 132.65430729 -15.84997961 128.59671531 -15.84047651 124.53889084 C-15.83289143 120.29618455 -15.83992232 116.05349806 -15.84463501 111.81079102 C-15.85009593 104.68534832 -15.84289215 97.55999886 -15.82861328 90.43457031 C-15.81228609 82.19170314 -15.81757436 73.94905856 -15.8340925 65.70619678 C-15.84769781 58.63436633 -15.84963171 51.56260297 -15.84177649 44.49076366 C-15.8370947 40.2647302 -15.83648895 36.03880143 -15.84638596 31.81277466 C-15.85503951 27.84006432 -15.84906347 23.86764152 -15.83170319 19.89496231 C-15.82772968 18.43524783 -15.82888713 16.97550924 -15.83549118 15.51580429 C-15.84366183 13.52673953 -15.83160936 11.53762201 -15.81845093 9.54858398 C-15.81675431 7.87722633 -15.81675431 7.87722633 -15.81502342 6.17210388 C-15.4375 3.4375 -15.4375 3.4375 -14.07444191 1.58081055 C-10.25378397 -1.08770108 -4.47613668 -0.02761498 0 0 Z " fill="#0E1319" transform="translate(460.4375,35.5625)"/>
<path d="M0 0 C0.98935547 -0.01611328 1.97871094 -0.03222656 2.99804688 -0.04882812 C4.43567383 -0.04979492 4.43567383 -0.04979492 5.90234375 -0.05078125 C6.77238037 -0.05376221 7.64241699 -0.05674316 8.53881836 -0.05981445 C11.98146768 0.44807374 13.44152084 0.93911646 16.0625 3.3125 C16.84904386 6.91553157 16.72364807 10.5036803 16.67773438 14.17797852 C16.68328339 15.29686462 16.6888324 16.41575073 16.69454956 17.56854248 C16.70638568 21.27659577 16.6820302 24.98343796 16.65625 28.69140625 C16.65454005 31.26065515 16.6546034 33.8299058 16.65637207 36.39915466 C16.6547166 41.78703757 16.63655426 47.17447683 16.60449219 52.56225586 C16.56757986 58.79547253 16.55881894 65.0282302 16.5657897 71.2615419 C16.57208936 77.25397713 16.56113966 83.24621391 16.54182434 89.23863029 C16.53477386 91.79081386 16.53167227 94.34301138 16.53251648 96.89520454 C16.53072681 100.455867 16.50941615 104.01586743 16.48242188 107.57641602 C16.48535248 108.63984726 16.48828308 109.7032785 16.49130249 110.79893494 C16.4799527 111.7649765 16.46860291 112.73101807 16.45690918 113.72633362 C16.45318047 114.56864312 16.44945175 115.41095263 16.44561005 116.27878666 C16.31918373 116.94991206 16.19275742 117.62103746 16.0625 118.3125 C12.60153844 120.6198077 11.23308903 120.56944718 7.15234375 120.578125 C5.42081055 120.58199219 5.42081055 120.58199219 3.65429688 120.5859375 C2.44837891 120.57820313 1.24246094 120.57046875 0 120.5625 C-1.81467773 120.57410156 -1.81467773 120.57410156 -3.66601562 120.5859375 C-4.81908203 120.58335937 -5.97214844 120.58078125 -7.16015625 120.578125 C-8.21984619 120.57586914 -9.27953613 120.57361328 -10.37133789 120.57128906 C-12.9375 120.3125 -12.9375 120.3125 -14.9375 118.3125 C-15.18359566 116.25478935 -15.18359566 116.25478935 -15.17800903 113.66818237 C-15.18075836 112.68939117 -15.18350769 111.71059998 -15.18634033 110.70214844 C-15.17914978 109.62465332 -15.17195923 108.5471582 -15.16455078 107.43701172 C-15.16484283 106.30530548 -15.16513489 105.17359924 -15.16543579 104.00759888 C-15.16403812 100.2523848 -15.14845626 96.49736708 -15.1328125 92.7421875 C-15.12908393 90.14429838 -15.12623622 87.54640787 -15.12423706 84.94851685 C-15.11737089 78.8003341 -15.10159462 72.65223287 -15.08153808 66.50408089 C-15.05920136 59.50538685 -15.04819127 52.50668946 -15.03814721 45.50796866 C-15.01722897 31.10944098 -14.98203909 16.71097301 -14.9375 2.3125 C-9.97401171 -0.32390164 -5.5431168 -0.01798545 0 0 Z " fill="#0E1319" transform="translate(183.9375,73.6875)"/>
<path d="M0 0 C3.91732925 4.06877239 4.94659156 8.44806631 4.953125 13.94921875 C4.4552155 34.47174928 -4.56939023 51.39076937 -19.1484375 65.546875 C-22.6011299 68.54344248 -26.11188831 71.125197 -30.484375 72.57421875 C-33.25828855 71.99632009 -34.51428505 71.5443087 -36.484375 69.57421875 C-36.83578931 65.09696965 -36.23761387 62.4029407 -34.03515625 58.51953125 C-33.51856445 57.58222168 -33.00197266 56.64491211 -32.46972656 55.67919922 C-31.91768555 54.69580566 -31.36564453 53.71241211 -30.796875 52.69921875 C-21.93441116 37.03349864 -21.93441116 37.03349864 -19.484375 19.57421875 C-23.29187492 15.76671883 -29.31527956 16.00059017 -34.484375 15.57421875 C-43.33727867 15.63533347 -51.96908745 16.72549603 -60.703125 18.15234375 C-69.10014965 19.42604974 -69.10014965 19.42604974 -72.921875 17.07421875 C-73.4375 16.57921875 -73.953125 16.08421875 -74.484375 15.57421875 C-74.41493519 12.65774661 -74.12748889 10.41306295 -72.31640625 8.05078125 C-55.28181159 -7.84817377 -19.8051036 -12.71273542 0 0 Z " fill="#0F131A" transform="translate(518.484375,237.42578125)"/>
<path d="M0 0 C4.59966813 -0.844837 7.38667534 -0.05031251 11.1875 2.4375 C13.70437604 4.24492105 16.15719829 6.12142862 18.609375 8.015625 C32.07309738 18.3551687 46.59505978 26.88922908 62 34 C62.78181641 34.36335449 63.56363281 34.72670898 64.36914062 35.10107422 C120.33752331 60.83555606 188.44058859 67.17429875 249 57 C250.59255615 56.74259033 250.59255615 56.74259033 252.21728516 56.47998047 C282.2143659 51.51669001 310.87645815 43.01835154 338.01171875 29.1796875 C341.26405539 27.89575853 343.53532341 27.68186614 347 28 C348.875 29.125 348.875 29.125 350 31 C350.59107258 34.79975227 350.26433469 36.55419984 348.29296875 39.87890625 C323.61992663 73.4628256 271.35403862 88.30129019 232.625 94.3125 C228.42185421 94.92052393 224.21435142 95.4756841 220 96 C218.61240479 96.17571533 218.61240479 96.17571533 217.19677734 96.35498047 C183.94326954 100.42474056 149.37496704 97.61878333 117 89 C116.15131348 88.77586426 115.30262695 88.55172852 114.42822266 88.32080078 C83.5314099 79.98636642 54.25990258 66.05506138 30 45 C29.17113281 44.28199219 28.34226563 43.56398438 27.48828125 42.82421875 C24.9557815 40.58591834 22.47047301 38.3065373 20 36 C19.1028125 35.16855469 18.205625 34.33710938 17.28125 33.48046875 C12.16325154 28.5709281 7.59201201 23.50684333 3.375 17.8125 C2.94896484 17.25473877 2.52292969 16.69697754 2.08398438 16.12231445 C-1.07339617 11.68728713 -1.85629953 8.32244428 -2 3 C-1.34 2.01 -0.68 1.02 0 0 Z M2 2 C1.34 4.31 0.68 6.62 0 9 C0.433125 9.350625 0.86625 9.70125 1.3125 10.0625 C3 12 3 12 4.4375 15.5625 C6.11527509 19.25360519 6.53777229 19.49970132 10 21 C10.34342449 22.33076989 10.67619874 23.66431979 11 25 C12.9600281 26.63676257 12.9600281 26.63676257 15 28 C15.33 28.66 15.66 29.32 16 30 C16.99 30 17.98 30 19 30 C19 30.99 19 31.98 19 33 C19.66 33 20.32 33 21 33 C21.33 33.99 21.66 34.98 22 36 C22.66 36 23.32 36 24 36 C24.66 36.99 25.32 37.98 26 39 C28.26914548 41.59330913 29.98897703 42.99470897 33.125 44.5 C36.33591158 46.17525822 36.4720359 46.9440718 38 50 C40.55519921 50.81171228 40.55519921 50.81171228 43 51 C43 51.66 43 52.32 43 53 C46.54318875 56.42889234 50.33197029 58.05903396 54.796875 59.921875 C56.9471978 60.97416063 58.4315293 62.07940052 60.1875 63.6875 C63.26014573 66.2138976 65.08859635 66.72061403 69 67 C69.33 67.99 69.66 68.98 70 70 C72.31 70.33 74.62 70.66 77 71 C77 71.66 77 72.32 77 73 C81.11757583 74.92340277 85.12226234 76.74921781 89.5 78 C92.2708033 78.79165809 94.43847584 79.64202755 97 80.875 C103.38108922 83.8083309 110.2108929 85.31214207 117 87 C117.80050781 87.20625 118.60101563 87.4125 119.42578125 87.625 C121.27953242 88.10051132 123.13966108 88.55095267 125 89 C125.64324219 89.16242188 126.28648437 89.32484375 126.94921875 89.4921875 C135.64377549 91.58145252 144.55358751 92.46333837 153.41796875 93.53515625 C154.14169678 93.62345703 154.8654248 93.71175781 155.61108398 93.80273438 C157.0099478 93.97262264 158.40919167 94.13941742 159.80883789 94.30273438 C162.68819545 94.65028711 165.23788392 95.07929464 168 96 C170.61713698 96.10914674 173.2066976 96.16405182 175.82421875 96.16796875 C176.60328079 96.17129715 177.38234283 96.17462555 178.18501282 96.17805481 C179.84184175 96.18312188 181.4986809 96.1854632 183.15551758 96.18530273 C185.63315986 96.18745284 188.11032935 96.20550732 190.58789062 96.22460938 C200.87911668 96.25980165 210.82681017 95.55393164 221 94 C221 93.34 221 92.68 221 92 C222.08410156 92.20109375 223.16820312 92.4021875 224.28515625 92.609375 C229.83989049 93.29867535 234.97854889 92.27422014 240.4375 91.25 C241.42298828 91.07984375 242.40847656 90.9096875 243.42382812 90.734375 C248.81449625 89.76269725 253.9142275 88.51911979 259.05932617 86.63208008 C261.97186879 85.68346103 264.9740116 85.42363838 268 85 C269.485 84.01 269.485 84.01 271 83 C273.64017635 82.18220159 276.30270591 81.6190511 279 81 C279 80.34 279 79.68 279 79 C285.5106383 77.08510638 285.5106383 77.08510638 288.875 76.5 C289.57625 76.335 290.2775 76.17 291 76 C291.33 75.34 291.66 74.68 292 74 C293.32 74 294.64 74 296 74 C296 73.34 296 72.68 296 72 C299.1276312 70.88298886 302.02117472 69.99680382 305.3125 69.5 C306.199375 69.335 307.08625 69.17 308 69 C308.33 68.34 308.66 67.68 309 67 C311.32671865 65.98470459 313.6603447 64.98511802 316 64 C316.66 63.34 317.32 62.68 318 62 C318.598125 61.71125 319.19625 61.4225 319.8125 61.125 C322.5101185 59.73765334 324.63913864 57.90020549 327 56 C327.928125 55.46375 328.85625 54.9275 329.8125 54.375 C330.8953125 53.694375 330.8953125 53.694375 332 53 C332 52.34 332 51.68 332 51 C332.60070312 50.90203125 333.20140625 50.8040625 333.8203125 50.703125 C336.44437764 49.85665237 337.21050787 48.91289937 338.875 46.75 C340.86166236 44.26793583 342.75424178 42.32091792 345.3125 40.4375 C348.26852873 38.20103239 348.26852873 38.20103239 348.875 34.6875 C348.91625 33.800625 348.9575 32.91375 349 32 C346.25075391 30.29573287 346.25075391 30.29573287 343.12109375 30.328125 C340.93088299 31.02189342 338.90174059 31.85730986 336.8125 32.8125 C335.64847656 33.34037109 335.64847656 33.34037109 334.4609375 33.87890625 C333.64882813 34.24886719 332.83671875 34.61882812 332 35 C330.31323631 35.75165451 328.62576778 36.5017299 326.9375 37.25 C326.18339844 37.58515625 325.42929687 37.9203125 324.65234375 38.265625 C324.10707031 38.50796875 323.56179688 38.7503125 323 39 C323 39.66 323 40.32 323 41 C321.89785156 41.09539062 320.79570312 41.19078125 319.66015625 41.2890625 C314.35163913 41.95511021 309.47734353 43.63389774 304.4375 45.375 C303.53064453 45.67921875 302.62378906 45.9834375 301.68945312 46.296875 C297.9317457 47.57215207 294.30533647 48.85639757 290.7109375 50.546875 C285.03921442 52.76780235 279.16231503 53.7797983 273.1875 54.875 C272.50171875 55.0015094 271.8159375 55.1280188 271.109375 55.25836182 C229.65048327 62.8226709 187.87037638 66.50053659 146 60 C144.78183594 59.81244141 143.56367188 59.62488281 142.30859375 59.43164062 C118.21161898 55.64427277 95.24204966 50.11076663 72.46875 41.25390625 C69.14451761 39.83002163 69.14451761 39.83002163 66 40 C66 39.34 66 38.68 66 38 C60.89926662 35.69436547 55.77293067 33.44820397 50.625 31.25 C49.62726563 30.82203125 48.62953125 30.3940625 47.6015625 29.953125 C44.99229349 28.82799696 44.99229349 28.82799696 42 29 C42 28.01 42 27.02 42 26 C40.730447 25.35165346 39.45930294 24.70642185 38.1875 24.0625 C37.47980469 23.70285156 36.77210938 23.34320313 36.04296875 22.97265625 C33.88189715 21.89269484 33.88189715 21.89269484 31 21 C31 20.34 31 19.68 31 19 C28.18490007 16.7226499 28.18490007 16.7226499 25 17 C24.67 16.01 24.34 15.02 24 14 C22.34561387 13.30341637 20.67745682 12.63903117 19 12 C17.38915959 10.57502579 16.04407954 9.05009039 14.625 7.4375 C12.60540314 5.65093355 10.4914985 4.98348625 8 4 C7.67 3.34 7.34 2.68 7 2 C5.35 2 3.7 2 2 2 Z " fill="#000102" transform="translate(131,238)"/>
<path d="M0 0 C14.41006494 10.49199984 21.32676977 25.21995309 24.34375 42.33984375 C26.9165393 59.23933478 26.9165393 59.23933478 23.87284851 63.72285461 C21.11751275 65.69374164 18.96392049 65.42229383 15.60083008 65.40307617 C14.95665634 65.40351425 14.3124826 65.40395233 13.64878845 65.40440369 C11.52205979 65.40231559 9.39612198 65.37898513 7.26953125 65.35546875 C5.79408702 65.34987283 4.31863722 65.34560271 2.84318542 65.34260559 C-1.03839534 65.33115637 -4.91963883 65.30168887 -8.80108643 65.26849365 C-12.76252683 65.23779424 -16.72402178 65.22410055 -20.68554688 65.20898438 C-28.45718494 65.17681894 -36.22854519 65.12562205 -44 65.0625 C-43.5554842 67.28923159 -43.10188905 69.51415182 -42.64453125 71.73828125 C-42.39292236 72.97747314 -42.14131348 74.21666504 -41.88208008 75.4934082 C-40.39764212 81.49977371 -38.2862059 86.26619537 -33.375 90.125 C-27.50457482 91.75567366 -21.49938322 92.2866877 -15.9375 89.5625 C-15.298125 89.0675 -14.65875 88.5725 -14 88.0625 C-13.34 88.0625 -12.68 88.0625 -12 88.0625 C-11.731875 87.381875 -11.46375 86.70125 -11.1875 86 C-10.795625 85.030625 -10.40375 84.06125 -10 83.0625 C-9.54625 81.845625 -9.0925 80.62875 -8.625 79.375 C-7 76.0625 -7 76.0625 -5.23291016 74.80371094 C-2.3433692 73.84453246 -0.61078702 74.23049998 2.3515625 74.890625 C3.87523437 75.22513672 3.87523437 75.22513672 5.4296875 75.56640625 C6.48414063 75.81261719 7.53859375 76.05882812 8.625 76.3125 C10.21828125 76.65861328 10.21828125 76.65861328 11.84375 77.01171875 C19.72371459 78.78621459 19.72371459 78.78621459 22 81.0625 C21.17158099 91.35233609 15.11759839 99.98818446 7.78515625 106.8671875 C-3.58132606 115.82646247 -16.85595414 118.57097358 -31.08203125 117.921875 C-43.70875914 116.36677598 -55.75934552 109.71951697 -64 100.0625 C-76.01384797 82.81345092 -79.10993455 62.75922615 -76.50390625 42.13671875 C-74.23946184 30.63538812 -69.99579717 20.46545318 -63 11.0625 C-62.2575 10.03125 -61.515 9 -60.75 7.9375 C-44.94471944 -8.58620241 -19.48884613 -12.44584728 0 0 Z M-41 -2.9375 C-41 -2.2775 -41 -1.6175 -41 -0.9375 C-42.051875 -1.0921875 -42.051875 -1.0921875 -43.125 -1.25 C-47.19327215 -0.8077965 -49.00158393 1.38999872 -52 4.0625 C-52.99 4.3925 -53.98 4.7225 -55 5.0625 C-57.72926391 7.37506494 -57.72926391 7.37506494 -60 10.0625 C-60 11.0525 -60 12.0425 -60 13.0625 C-60.99 13.0625 -61.98 13.0625 -63 13.0625 C-65.78443571 16.73795514 -66.87143971 20.63507117 -68 25.0625 C-68.66 25.0625 -69.32 25.0625 -70 25.0625 C-77.53972277 43.3732553 -77.8616857 66.32740754 -70.8984375 85.01953125 C-70.60195313 85.69371094 -70.30546875 86.36789063 -70 87.0625 C-69.34 87.0625 -68.68 87.0625 -68 87.0625 C-67.5978125 88.114375 -67.5978125 88.114375 -67.1875 89.1875 C-64.61046738 95.4266316 -62.35656332 98.82188737 -57 103.0625 C-56.36964844 104.00996094 -56.36964844 104.00996094 -55.7265625 104.9765625 C-53.39858068 107.78910163 -50.59197076 109.22281232 -47.375 110.8125 C-46.44373291 111.27861694 -46.44373291 111.27861694 -45.49365234 111.75415039 C-40.33682372 114.19091561 -36.59899713 114.73824103 -31 114.0625 C-31 114.7225 -31 115.3825 -31 116.0625 C-27.95808469 115.75228487 -24.91648266 115.43940547 -21.875 115.125 C-21.0190625 115.03798828 -20.163125 114.95097656 -19.28125 114.86132812 C-14.82280819 114.39833609 -10.41326006 113.86556863 -6 113.0625 C-6 112.4025 -6 111.7425 -6 111.0625 C-4.989375 110.835625 -3.97875 110.60875 -2.9375 110.375 C4.14460726 108.32491632 8.19863025 104.27140393 12 98.0625 C12.86625 97.093125 13.7325 96.12375 14.625 95.125 C18.12425091 90.61280804 19 86.71235775 19 81.0625 C14.02093741 80.30822703 14.02093741 80.30822703 9 80.0625 C9 79.4025 9 78.7425 9 78.0625 C7.7625 77.918125 6.525 77.77375 5.25 77.625 C2.98124786 77.34890847 0.89689673 77.03463425 -1.3125 76.4375 C-3.24116989 75.85705899 -3.24116989 75.85705899 -6 77.0625 C-6.66 80.3625 -7.32 83.6625 -8 87.0625 C-8.66 87.0625 -9.32 87.0625 -10 87.0625 C-10 87.7225 -10 88.3825 -10 89.0625 C-10.66 89.0625 -11.32 89.0625 -12 89.0625 C-12 89.7225 -12 90.3825 -12 91.0625 C-19.30078025 93.60928381 -25.33310588 94.80084824 -33 93.0625 C-35.5 91 -35.5 91 -37 89.0625 C-37.66 89.0625 -38.32 89.0625 -39 89.0625 C-39.33 87.7425 -39.66 86.4225 -40 85.0625 C-40.33 85.0625 -40.66 85.0625 -41 85.0625 C-41.144375 84.299375 -41.28875 83.53625 -41.4375 82.75 C-41.9632594 79.98077092 -41.9632594 79.98077092 -43 77.0625 C-43.40285581 75.02614665 -43.77494582 72.98359136 -44.125 70.9375 C-44.31320312 69.86242187 -44.50140625 68.78734375 -44.6953125 67.6796875 C-44.79585937 66.81601563 -44.89640625 65.95234375 -45 65.0625 C-43.21631578 63.27881578 -40.57913805 63.90968376 -38.16674805 63.88891602 C-36.91842697 63.87542618 -35.6701059 63.86193634 -34.38395691 63.84803772 C-33.37674623 63.8404478 -33.37674623 63.8404478 -32.34918785 63.83270454 C-30.25181051 63.81632889 -28.15461496 63.7930912 -26.05732727 63.76780701 C-20.0927534 63.69694773 -14.12810365 63.63697757 -8.16333008 63.58569336 C-4.51810822 63.55386969 -0.87309201 63.51258077 2.77196312 63.46549797 C4.16137165 63.44949216 5.55082762 63.437164 6.9403019 63.42859077 C8.88646502 63.41641346 10.83253356 63.39122698 12.77856445 63.36547852 C13.88585403 63.35517105 14.99314362 63.34486359 16.13398743 63.33424377 C18.94286295 63.06791751 20.61271145 62.51616201 23 61.0625 C23.28710304 51.77950156 22.21487655 43.69167109 19.875 34.75 C19 31.0625 19 31.0625 19.0625 28.375 C18.97800531 25.24869634 17.84058305 23.54020795 16 21.0625 C15.34 21.0625 14.68 21.0625 14 21.0625 C14.495 19.5775 14.495 19.5775 15 18.0625 C13.824375 16.94875 13.824375 16.94875 12.625 15.8125 C10 13.0625 10 13.0625 8.9375 10.8125 C8.1346633 8.84155978 8.1346633 8.84155978 5.875 8.3125 C5.25625 8.23 4.6375 8.1475 4 8.0625 C3.938125 7.464375 3.87625 6.86625 3.8125 6.25 C2.42847915 2.52379002 -1.2692101 1.4428965 -4.6640625 -0.32421875 C-16.35833424 -5.46167586 -28.56672955 -4.95997866 -41 -2.9375 Z " fill="#000102" transform="translate(567,78.9375)"/>
<path d="M0 0 C4.3417553 2.50319888 6.9008125 4.85850468 8.47265625 9.76171875 C9.99269615 16.28787806 9.89565431 21.35278262 6.6875 27.3125 C3.31335562 31.62390671 -0.12849701 33.61429212 -5.3125 35.3125 C-10.81157329 35.9123989 -15.50729813 35.01794979 -20.3125 32.3125 C-24.43001684 28.69407611 -26.96180672 24.47413481 -27.56640625 19.0234375 C-27.85551156 12.84964032 -26.99505065 9.2889198 -23.3125 4.3125 C-16.64834327 -2.0099051 -8.48668162 -3.91084023 0 0 Z " fill="#0F1319" transform="translate(193.3125,31.6875)"/>
<path d="M0 0 C1.093125 -0.01998047 2.18625 -0.03996094 3.3125 -0.06054688 C4.364375 -0.05990234 5.41625 -0.05925781 6.5 -0.05859375 C7.4590625 -0.06044678 8.418125 -0.0622998 9.40625 -0.06420898 C12.82473308 0.59702809 13.84850607 1.72602259 16 4.4375 C16.50057125 7.27953434 16.50057125 7.27953434 16.50120544 10.63087463 C16.51103958 11.90257507 16.52087372 13.17427551 16.53100586 14.48451233 C16.52163414 15.89145165 16.51185484 17.29838831 16.50170898 18.70532227 C16.50549245 20.18871575 16.51099272 21.67210569 16.51808167 23.15548706 C16.532049 27.18233282 16.52085833 31.20875192 16.50437045 35.23557401 C16.49052737 39.44757507 16.49697908 43.65955118 16.50050354 47.87156677 C16.50320596 54.94398888 16.48972639 62.01624131 16.46655273 69.08862305 C16.43993246 77.26960406 16.438199 85.45030151 16.4499411 93.631311 C16.46071281 101.49729074 16.45453727 109.36316775 16.44038582 117.22913933 C16.43462176 120.57877971 16.43471195 123.92834502 16.43945122 127.27798653 C16.44421673 131.22035871 16.43413736 135.16241958 16.41249657 139.10473251 C16.40692303 140.55315412 16.4064686 142.00160561 16.41144943 143.45002937 C16.41738641 145.42372956 16.40308597 147.39746002 16.38768005 149.37110901 C16.38525016 150.47667428 16.38282026 151.58223955 16.38031673 152.7213068 C16 155.4375 16 155.4375 14.62030125 157.29337978 C12.36123339 158.88854316 10.74806656 158.81001803 8 158.80078125 C7.030625 158.80013672 6.06125 158.79949219 5.0625 158.79882812 C3.5465625 158.7746582 3.5465625 158.7746582 2 158.75 C0.4840625 158.75483398 0.4840625 158.75483398 -1.0625 158.75976562 C-8.59928571 158.70464286 -8.59928571 158.70464286 -12 156.4375 C-12.94921875 153.3984375 -12.94921875 153.3984375 -13.6875 149.8125 C-13.93886719 148.62398437 -14.19023437 147.43546875 -14.44921875 146.2109375 C-14.63097656 145.29570312 -14.81273437 144.38046875 -15 143.4375 C-15.59683594 144.1903125 -16.19367188 144.943125 -16.80859375 145.71875 C-23.63996545 154.19403468 -30.93528423 159.85288086 -42.0625 161.375 C-52.03457258 161.89569366 -60.3943809 158.96313744 -68.12890625 152.71875 C-79.3465347 142.33126863 -85.33268347 125.37096039 -86.17700195 110.2722168 C-86.60222693 86.77980751 -86.48048914 63.38518054 -69.109375 45.2734375 C-61.22577769 38.41178799 -52.54503592 35.96950032 -42.2421875 36.203125 C-32.38078051 36.91599779 -26.76671599 41.38985536 -20 48.4375 C-18.98831775 49.76199115 -17.98625614 51.09396861 -17 52.4375 C-16.99635437 51.8302861 -16.99270874 51.2230722 -16.98895264 50.59745789 C-16.94719641 44.28699234 -16.87789979 37.97725881 -16.79248047 31.66723633 C-16.76422546 29.31119095 -16.7430336 26.95504998 -16.72900391 24.59887695 C-16.70763755 21.21515804 -16.6610183 17.83259403 -16.609375 14.44921875 C-16.60814636 13.39288742 -16.60691772 12.33655609 -16.60565186 11.24821472 C-16.58593323 10.26742447 -16.5662146 9.28663422 -16.54589844 8.27612305 C-16.53257477 6.98039619 -16.53257477 6.98039619 -16.51898193 5.65849304 C-16 3.4375 -16 3.4375 -14.12799072 1.66033936 C-9.86839397 -0.78741687 -4.78693406 -0.03104733 0 0 Z M-14 4.4375 C-14.12281952 6.06329218 -14.17782504 7.69427004 -14.20532227 9.32446289 C-14.22526749 10.36546646 -14.24521271 11.40647003 -14.26576233 12.47901917 C-14.28247482 13.6112944 -14.29918732 14.74356964 -14.31640625 15.91015625 C-14.3475779 17.63932533 -14.3475779 17.63932533 -14.37937927 19.40342712 C-14.44499964 23.10222157 -14.50381755 26.80108959 -14.5625 30.5 C-14.60567335 33.00065879 -14.64928724 35.50131001 -14.69335938 38.00195312 C-14.80069368 44.14705662 -14.90243643 50.29223404 -15 56.4375 C-18 54.4375 -18 54.4375 -19.1875 52.25 C-21.96728488 47.9365407 -26.09892909 43.42463188 -31.06640625 41.734375 C-33.16816701 41.36162146 -33.16816701 41.36162146 -36 41.4375 C-36 40.7775 -36 40.1175 -36 39.4375 C-44.99116024 38.15304854 -53.044886 37.13409067 -61 42.4375 C-62.010625 42.85 -63.02125 43.2625 -64.0625 43.6875 C-67.75579367 45.88776006 -67.7346663 47.47278773 -69 51.4375 C-69.78375 51.705625 -70.5675 51.97375 -71.375 52.25 C-74.98840015 53.8846334 -75.46525943 55.7452861 -76.890625 59.34375 C-77.25671875 60.3646875 -77.6228125 61.385625 -78 62.4375 C-78.36641602 63.44683594 -78.36641602 63.44683594 -78.74023438 64.4765625 C-79.5729651 66.79127164 -80.38402849 69.11247972 -81.1875 71.4375 C-81.44974365 72.18451172 -81.7119873 72.93152344 -81.98217773 73.70117188 C-84.73258114 81.92097456 -85.19466549 90.00760551 -85.1875 98.625 C-85.18814453 99.44073486 -85.18878906 100.25646973 -85.18945312 101.09692383 C-85.1271192 108.3411178 -84.30314417 115.30511273 -83 122.4375 C-82.34 122.4375 -81.68 122.4375 -81 122.4375 C-80.938125 123.324375 -80.87625 124.21125 -80.8125 125.125 C-79.95942381 131.13362357 -77.63150649 136.99956028 -75 142.4375 C-74.01 143.0975 -73.02 143.7575 -72 144.4375 C-71.484375 145.30375 -70.96875 146.17 -70.4375 147.0625 C-69.963125 147.84625 -69.48875 148.63 -69 149.4375 C-68.34 149.4375 -67.68 149.4375 -67 149.4375 C-67 150.0975 -67 150.7575 -67 151.4375 C-65.35666496 152.47539581 -63.68756133 153.47317924 -62 154.4375 C-61.34 155.0975 -60.68 155.7575 -60 156.4375 C-51.15798948 159.3312489 -40.80072059 159.86178037 -32 156.4375 C-29.09443145 154.69804592 -26.39617929 152.84020839 -24 150.4375 C-24 149.7775 -24 149.1175 -24 148.4375 C-23.38125 148.39625 -22.7625 148.355 -22.125 148.3125 C-21.073125 147.879375 -21.073125 147.879375 -20 147.4375 C-19.67 146.4475 -19.34 145.4575 -19 144.4375 C-18.67 143.4475 -18.34 142.4575 -18 141.4375 C-15.9375 140.75 -15.9375 140.75 -14 140.4375 C-13.80664062 141.42492187 -13.61328125 142.41234375 -13.4140625 143.4296875 C-13.15367187 144.71101562 -12.89328125 145.99234375 -12.625 147.3125 C-12.36976563 148.58867187 -12.11453125 149.86484375 -11.8515625 151.1796875 C-11.27762104 154.49674456 -11.27762104 154.49674456 -9 156.4375 C-6.68895725 156.7315915 -6.68895725 156.7315915 -4.02734375 156.66796875 C-3.04572266 156.66603516 -2.06410156 156.66410156 -1.05273438 156.66210938 C-0.02470703 156.64986328 1.00332031 156.63761719 2.0625 156.625 C3.09439453 156.62435547 4.12628906 156.62371094 5.18945312 156.62304688 C9.94040246 157.04158311 9.94040246 157.04158311 14 155.4375 C14.09664967 153.48855041 14.12187121 151.53604545 14.12025452 149.58470154 C14.12162918 148.31278961 14.12300385 147.04087769 14.12442017 145.73042297 C14.12088055 144.30783058 14.11724573 142.88523842 14.11352539 141.46264648 C14.11324353 139.97483319 14.11340124 138.48701976 14.1139679 136.99920654 C14.1142559 132.94773 14.10835867 128.8962828 14.10139394 124.84481311 C14.09516092 120.61538003 14.09455664 116.38594636 14.09336853 112.1565094 C14.09025506 104.14190278 14.08204146 96.12730973 14.07201904 88.11270911 C14.06085839 78.99073316 14.05534758 69.86875658 14.05032361 60.74677551 C14.03985886 41.9770093 14.02225912 23.20725574 14 4.4375 C11.35171821 3.1133591 9.33319888 3.30792958 6.37109375 3.3046875 C5.25412109 3.30339844 4.13714844 3.30210938 2.98632812 3.30078125 C1.81521484 3.30464844 0.64410156 3.30851562 -0.5625 3.3125 C-1.73748047 3.30863281 -2.91246094 3.30476563 -4.12304688 3.30078125 C-5.79657227 3.30271484 -5.79657227 3.30271484 -7.50390625 3.3046875 C-8.53330322 3.30581543 -9.5627002 3.30694336 -10.62329102 3.30810547 C-12.95484108 3.16980066 -12.95484108 3.16980066 -14 4.4375 Z " fill="#000102" transform="translate(412,35.5625)"/>
<path d="M0 0 C1.14533203 -0.01998047 2.29066406 -0.03996094 3.47070312 -0.06054688 C4.57220703 -0.05990234 5.67371094 -0.05925781 6.80859375 -0.05859375 C8.31957642 -0.06137329 8.31957642 -0.06137329 9.86108398 -0.06420898 C13.36273308 0.58611988 14.36780531 1.66158446 16.5625 4.4375 C17.06307125 7.27953434 17.06307125 7.27953434 17.06370544 10.63087463 C17.07353958 11.90257507 17.08337372 13.17427551 17.09350586 14.48451233 C17.08413414 15.89145165 17.07435484 17.29838831 17.06420898 18.70532227 C17.06799245 20.18871575 17.07349272 21.67210569 17.08058167 23.15548706 C17.094549 27.18233282 17.08335833 31.20875192 17.06687045 35.23557401 C17.05302737 39.44757507 17.05947908 43.65955118 17.06300354 47.87156677 C17.06570596 54.94398888 17.05222639 62.01624131 17.02905273 69.08862305 C17.00243246 77.26960406 17.000699 85.45030151 17.0124411 93.631311 C17.02321281 101.49729074 17.01703727 109.36316775 17.00288582 117.22913933 C16.99712176 120.57877971 16.99721195 123.92834502 17.00195122 127.27798653 C17.00671673 131.22035871 16.99663736 135.16241958 16.97499657 139.10473251 C16.96942303 140.55315412 16.9689686 142.00160561 16.97394943 143.45002937 C16.97988641 145.42372956 16.96558597 147.39746002 16.95018005 149.37110901 C16.94775016 150.47667428 16.94532026 151.58223955 16.94281673 152.7213068 C16.5625 155.4375 16.5625 155.4375 15.20575047 157.29238796 C12.73066118 159.01717344 10.6747197 158.82635137 7.6875 158.8359375 C6.53765625 158.83980469 5.3878125 158.84367188 4.203125 158.84765625 C3.00171875 158.83605469 1.8003125 158.82445312 0.5625 158.8125 C-0.63890625 158.82410156 -1.8403125 158.83570313 -3.078125 158.84765625 C-4.80289062 158.84185547 -4.80289062 158.84185547 -6.5625 158.8359375 C-7.61695313 158.83255371 -8.67140625 158.82916992 -9.7578125 158.82568359 C-12.4375 158.4375 -12.4375 158.4375 -14.08117104 157.29518127 C-16.03481918 154.61938825 -15.81510712 152.62044534 -15.81845093 149.32641602 C-15.8269104 148.04767609 -15.83536987 146.76893616 -15.84408569 145.45144653 C-15.83825258 144.03143184 -15.83210806 142.61141839 -15.82568359 141.19140625 C-15.82974797 139.69830948 -15.8350891 138.20521573 -15.84161377 136.71212769 C-15.85530924 132.65430729 -15.84997961 128.59671531 -15.84047651 124.53889084 C-15.83289143 120.29618455 -15.83992232 116.05349806 -15.84463501 111.81079102 C-15.85009593 104.68534832 -15.84289215 97.55999886 -15.82861328 90.43457031 C-15.81228609 82.19170314 -15.81757436 73.94905856 -15.8340925 65.70619678 C-15.84769781 58.63436633 -15.84963171 51.56260297 -15.84177649 44.49076366 C-15.8370947 40.2647302 -15.83648895 36.03880143 -15.84638596 31.81277466 C-15.85503951 27.84006432 -15.84906347 23.86764152 -15.83170319 19.89496231 C-15.82772968 18.43524783 -15.82888713 16.97550924 -15.83549118 15.51580429 C-15.84366183 13.52673953 -15.83160936 11.53762201 -15.81845093 9.54858398 C-15.81675431 7.87722633 -15.81675431 7.87722633 -15.81502342 6.17210388 C-15.4375 3.4375 -15.4375 3.4375 -14.07444191 1.58081055 C-10.25378397 -1.08770108 -4.47613668 -0.02761498 0 0 Z M-14.4375 5.4375 C-14.73941485 7.91086893 -14.73941485 7.91086893 -14.68473816 10.83627319 C-14.68893265 11.98283386 -14.69312714 13.12939453 -14.69744873 14.31069946 C-14.69182922 15.57505829 -14.68620972 16.83941711 -14.68041992 18.14208984 C-14.68149254 19.4825042 -14.68343091 20.8229181 -14.68617249 22.16333008 C-14.69103198 25.81270682 -14.68334775 29.4619618 -14.67321944 33.11132383 C-14.66443867 36.93608176 -14.66619652 40.76083586 -14.6665802 44.58560181 C-14.66564239 51.02014195 -14.65694933 57.45463506 -14.64331055 63.88916016 C-14.62765051 71.30413327 -14.62231012 78.71905463 -14.6230461 86.1340431 C-14.62372511 94.04587942 -14.61675649 101.95769605 -14.6075995 109.86952639 C-14.60547917 112.13729586 -14.60475977 114.40506211 -14.60436058 116.67283249 C-14.60334584 120.25970561 -14.59715838 123.84653633 -14.58719444 127.43339539 C-14.58294122 129.35859746 -14.58343568 131.28380825 -14.58413696 133.20901489 C-15.51752222 145.53894723 -15.51752222 145.53894723 -12.4375 156.4375 C-10.51082493 156.52498207 -8.58098139 156.54447334 -6.65234375 156.53515625 C-5.48251953 156.53193359 -4.31269531 156.52871094 -3.10742188 156.52539062 C-1.87572266 156.51701172 -0.64402344 156.50863281 0.625 156.5 C1.86056641 156.49548828 3.09613281 156.49097656 4.36914062 156.48632812 C7.43364117 156.47449608 10.49804721 156.45801173 13.5625 156.4375 C13.58582748 136.63643439 13.60347843 116.83537156 13.61431217 97.03429508 C13.61947545 87.84097396 13.62651875 78.64766136 13.63793945 69.4543457 C13.64788532 61.44442964 13.65435319 53.43451975 13.65658849 45.42459768 C13.65789577 41.18072747 13.66098266 36.9368749 13.66823006 32.69301033 C13.67498874 28.7032093 13.67711727 24.7134333 13.67560768 20.72362709 C13.67588408 19.25500605 13.6778901 17.78638421 13.68170547 16.3177681 C13.68664028 14.32127224 13.68489813 12.32476313 13.68275452 10.32826233 C13.68367631 9.20828385 13.6845981 8.08830538 13.68554783 6.93438816 C13.84551675 4.49670162 13.84551675 4.49670162 12.5625 3.4375 C8.42287717 3.18448761 4.27144004 3.25227451 0.125 3.25 C-1.63166992 3.23163086 -1.63166992 3.23163086 -3.42382812 3.21289062 C-4.54080078 3.21095703 -5.65777344 3.20902344 -6.80859375 3.20703125 C-7.83911865 3.20292236 -8.86964355 3.19881348 -9.93139648 3.19458008 C-12.60997404 3.18624932 -12.60997404 3.18624932 -14.4375 5.4375 Z " fill="#010305" transform="translate(460.4375,35.5625)"/>
<path d="M0 0 C1.051875 0.00064453 2.10375 0.00128906 3.1875 0.00195312 C4.280625 0.01806641 5.37375 0.03417969 6.5 0.05078125 C7.593125 0.04755859 8.68625 0.04433594 9.8125 0.04101562 C17.96537267 0.09596759 17.96537267 0.09596759 22.5 2.36328125 C22.83 29.09328125 23.16 55.82328125 23.5 83.36328125 C24.49 83.36328125 25.48 83.36328125 26.5 83.36328125 C25.18 84.35328125 23.86 85.34328125 22.5 86.36328125 C20.53890177 84.40218302 21.32564731 80.60277378 21.31054688 77.921875 C21.30225357 77.14304962 21.29396027 76.36422424 21.28541565 75.5617981 C21.2679775 73.86536728 21.25282109 72.16891186 21.23963928 70.47244263 C21.21868156 67.79202852 21.19165402 65.11173823 21.16296387 62.43139648 C21.09298549 55.77386576 21.03367339 49.11624721 20.97393799 42.45861816 C20.92309483 36.83695292 20.86829358 31.21535388 20.80812073 25.59378052 C20.78144629 22.94527119 20.76069201 20.29675607 20.7401123 17.64819336 C20.7235163 16.0336884 20.70664508 14.41918623 20.68945312 12.8046875 C20.68526871 12.06179474 20.68108429 11.31890198 20.67677307 10.55349731 C20.93166331 7.17110927 20.93166331 7.17110927 19.5 4.36328125 C17.67014378 4.26365888 15.83647122 4.23247673 14.00390625 4.23046875 C12.33038086 4.22853516 12.33038086 4.22853516 10.62304688 4.2265625 C9.44806641 4.23042969 8.27308594 4.23429687 7.0625 4.23828125 C5.89138672 4.23441406 4.72027344 4.23054688 3.51367188 4.2265625 C1.83821289 4.22849609 1.83821289 4.22849609 0.12890625 4.23046875 C-1.4168811 4.23216064 -1.4168811 4.23216064 -2.99389648 4.23388672 C-5.49809675 4.19545493 -5.49809675 4.19545493 -7.5 5.36328125 C-7.17 55.19328125 -6.84 105.02328125 -6.5 156.36328125 C2.41 156.36328125 11.32 156.36328125 20.5 156.36328125 C20.52578125 154.31625 20.5515625 152.26921875 20.578125 150.16015625 C20.61985489 148.1710313 20.66172403 146.1819066 20.70751953 144.19287109 C20.73569099 142.81376474 20.75692472 141.43449807 20.77099609 140.05517578 C20.79247545 138.06905176 20.84123132 136.08328216 20.890625 134.09765625 C20.9220459 132.30666504 20.9220459 132.30666504 20.95410156 130.47949219 C21.60252376 126.7780338 22.70584293 125.76378268 25.5 123.36328125 C25.974375 122.39390625 26.44875 121.42453125 26.9375 120.42578125 C28.67172068 117.02670871 30.74729771 114.97481932 33.5 112.36328125 C34.49 110.87828125 34.49 110.87828125 35.5 109.36328125 C36.82 109.69328125 38.14 110.02328125 39.5 110.36328125 C40.125 112.23828125 40.125 112.23828125 40.5 114.36328125 C39.84 115.02328125 39.18 115.68328125 38.5 116.36328125 C37.51 115.37328125 36.52 114.38328125 35.5 113.36328125 C34.06052003 115.42442343 32.62337429 117.48712937 31.1875 119.55078125 C30.78337891 120.12892578 30.37925781 120.70707031 29.96289062 121.30273438 C29.56650391 121.87314453 29.17011719 122.44355469 28.76171875 123.03125 C28.40037842 123.54969482 28.03903809 124.06813965 27.66674805 124.60229492 C27.28172119 125.18342041 26.89669434 125.7645459 26.5 126.36328125 C25.96673096 127.13559082 25.43346191 127.90790039 24.8840332 128.70361328 C23.27984687 131.78634496 23.11805843 133.79240255 23.09375 137.25 C23.07183594 138.35279297 23.04992187 139.45558594 23.02734375 140.59179688 C23.00902195 142.90950448 22.99079372 145.22721282 22.97265625 147.54492188 C22.95074219 148.64384766 22.92882812 149.74277344 22.90625 150.875 C22.89916016 151.88006592 22.89207031 152.88513184 22.88476562 153.9206543 C22.75779297 154.72672119 22.63082031 155.53278809 22.5 156.36328125 C17.62873683 159.61079003 12.22409973 158.69113559 6.5 158.67578125 C5.29859375 158.69189453 4.0971875 158.70800781 2.859375 158.72460938 C1.70953125 158.72525391 0.5596875 158.72589844 -0.625 158.7265625 C-1.67945312 158.72954346 -2.73390625 158.73252441 -3.8203125 158.7355957 C-6.5 158.36328125 -6.5 158.36328125 -8.14325047 157.22195435 C-10.0964412 154.54618924 -9.8804967 152.54615127 -9.88768005 149.25219727 C-9.89758469 147.97345734 -9.90748932 146.69471741 -9.91769409 145.37722778 C-9.91345583 143.9572134 -9.90889795 142.53719994 -9.90405273 141.1171875 C-9.90975394 139.62408944 -9.91671723 138.13099573 -9.92485046 136.63790894 C-9.94282361 132.5801007 -9.94160589 128.52250821 -9.93590808 124.46467209 C-9.93282257 121.07977133 -9.93890147 117.6949124 -9.94494683 114.31001759 C-9.95900375 106.32676034 -9.95742076 98.34361008 -9.94604492 90.36035156 C-9.93455884 82.11743771 -9.94864482 73.87484903 -9.9754414 65.63197803 C-9.99757245 58.56014363 -10.00424177 51.4884115 -9.99836498 44.41654491 C-9.99498839 40.19046939 -9.99745688 35.9646024 -10.01461601 31.73855591 C-10.03004224 27.76578427 -10.02617833 23.79349581 -10.00731087 19.82074356 C-10.00361308 18.36102518 -10.006768 16.90127135 -10.01719666 15.44158554 C-10.03032463 13.45254829 -10.016502 11.46338699 -10.00120544 9.47436523 C-10.00099616 8.3601268 -10.00078688 7.24588837 -10.00057125 6.09788513 C-9.5 3.36328125 -9.5 3.36328125 -7.63078403 1.50460815 C-4.93608557 0.06122778 -3.05014056 -0.00948044 0 0 Z " fill="#000001" transform="translate(69.5,35.63671875)"/>
<path d="M0 0 C0.69931641 -0.01224609 1.39863281 -0.02449219 2.11914062 -0.03710938 C6.52253718 -0.0494669 10.15835216 0.3746846 14.1875 2.1875 C16.48383824 5.63200737 16.72766485 8.12562283 17.1875 12.1875 C16.1975 12.1875 15.2075 12.1875 14.1875 12.1875 C12.7025 7.2375 12.7025 7.2375 11.1875 2.1875 C5.2475 2.1875 -0.6925 2.1875 -6.8125 2.1875 C-6.8125 2.8475 -6.8125 3.5075 -6.8125 4.1875 C-7.8025 4.5175 -8.7925 4.8475 -9.8125 5.1875 C-9.8125 42.1475 -9.8125 79.1075 -9.8125 117.1875 C-1.2325 117.1875 7.3475 117.1875 16.1875 117.1875 C16.20731934 115.12983398 16.22713867 113.07216797 16.24755859 110.95214844 C16.31482783 104.11087657 16.39245914 97.26974953 16.47502708 90.42864609 C16.52471699 86.2857973 16.57104651 82.14297071 16.609375 78 C16.64657644 73.9927985 16.69302449 69.9857961 16.74556351 65.9787674 C16.76392424 64.45920599 16.77909773 62.93960221 16.79084396 61.41997528 C16.98701485 36.89125791 16.98701485 36.89125791 24.125 29.0625 C28.00168855 25.53823769 30.97215179 24.91142326 36.1875 24.9375 C37.734375 24.92976563 37.734375 24.92976563 39.3125 24.921875 C43.14865401 25.27630227 45.26632549 26.46172614 48.25 28.8125 C50.89278187 32.05203906 51.86731701 35.22695103 53.1875 39.1875 C52.1975 39.6825 52.1975 39.6825 51.1875 40.1875 C50.94515625 39.64480469 50.7028125 39.10210937 50.453125 38.54296875 C47.89287714 32.9663472 47.89287714 32.9663472 43.1875 29.1875 C38.17722375 27.51740792 33.85706683 27.60957302 28.9375 29.3125 C23.43612986 33.06343419 21.69928215 37.90915227 20.1875 44.1875 C20.00900244 46.70142936 19.9245923 49.22316361 19.91625977 51.7434082 C19.90841965 52.82276894 19.90841965 52.82276894 19.90042114 53.92393494 C19.89024495 55.47292739 19.88441198 57.02195342 19.88253975 58.57097816 C19.87885676 61.02120902 19.86208237 63.47104214 19.84178162 65.92118835 C19.78652214 72.88236122 19.755569 79.84358909 19.73120117 86.80493164 C19.71536456 91.07305002 19.68520183 95.34087822 19.64643669 99.60884666 C19.63476723 101.23436605 19.62885617 102.85993716 19.62875557 104.48549843 C19.6285644 106.75016485 19.61036902 109.01402305 19.58813477 111.27856445 C19.58052879 113.21213554 19.58052879 113.21213554 19.57276917 115.18476868 C19.44563034 116.17567001 19.31849152 117.16657135 19.1875 118.1875 C15.72653844 120.4948077 14.35808903 120.44444718 10.27734375 120.453125 C8.54581055 120.45699219 8.54581055 120.45699219 6.77929688 120.4609375 C5.57337891 120.45320313 4.36746094 120.44546875 3.125 120.4375 C1.31032227 120.44910156 1.31032227 120.44910156 -0.54101562 120.4609375 C-1.69408203 120.45835937 -2.84714844 120.45578125 -4.03515625 120.453125 C-5.09484619 120.45086914 -6.15453613 120.44861328 -7.24633789 120.44628906 C-9.8125 120.1875 -9.8125 120.1875 -11.8125 118.1875 C-12.07979965 116.16940403 -12.07979965 116.16940403 -12.10443115 113.63929749 C-12.11848495 112.68167007 -12.13253876 111.72404266 -12.14701843 110.73739624 C-12.15232071 109.68331573 -12.15762299 108.62923523 -12.16308594 107.54321289 C-12.17634415 106.43583267 -12.18960236 105.32845245 -12.20326233 104.18751526 C-12.244485 100.51175528 -12.27112266 96.83605489 -12.296875 93.16015625 C-12.32065298 90.61428798 -12.34501333 88.06842509 -12.36993408 85.52256775 C-12.41992271 80.18019573 -12.46287807 74.83782982 -12.50048828 69.49536133 C-12.54411033 63.31725405 -12.60217312 57.13940681 -12.66773582 50.96149641 C-12.73033347 45.02206831 -12.78155156 39.08258188 -12.82794952 33.14300346 C-12.84889017 30.61394025 -12.87286913 28.08490036 -12.89989471 25.55589485 C-12.93620877 22.02431636 -12.95959432 18.49288555 -12.97949219 14.96118164 C-12.99959099 13.38309723 -12.99959099 13.38309723 -13.02009583 11.77313232 C-13.02287033 10.81268509 -13.02564484 9.85223785 -13.02850342 8.86268616 C-13.03512371 8.02737397 -13.041744 7.19206179 -13.04856491 6.33143711 C-12.8125 4.1875 -12.8125 4.1875 -10.8125 1.1875 C-7.16693406 -0.02768865 -3.79555836 0.00344112 0 0 Z " fill="#010103" transform="translate(229.8125,73.8125)"/>
<path d="M0 0 C0.98935547 -0.01611328 1.97871094 -0.03222656 2.99804688 -0.04882812 C4.43567383 -0.04979492 4.43567383 -0.04979492 5.90234375 -0.05078125 C6.77238037 -0.05376221 7.64241699 -0.05674316 8.53881836 -0.05981445 C11.98146768 0.44807374 13.44152084 0.93911646 16.0625 3.3125 C16.84904386 6.91553157 16.72364807 10.5036803 16.67773438 14.17797852 C16.68328339 15.29686462 16.6888324 16.41575073 16.69454956 17.56854248 C16.70638568 21.27659577 16.6820302 24.98343796 16.65625 28.69140625 C16.65454005 31.26065515 16.6546034 33.8299058 16.65637207 36.39915466 C16.6547166 41.78703757 16.63655426 47.17447683 16.60449219 52.56225586 C16.56757986 58.79547253 16.55881894 65.0282302 16.5657897 71.2615419 C16.57208936 77.25397713 16.56113966 83.24621391 16.54182434 89.23863029 C16.53477386 91.79081386 16.53167227 94.34301138 16.53251648 96.89520454 C16.53072681 100.455867 16.50941615 104.01586743 16.48242188 107.57641602 C16.48535248 108.63984726 16.48828308 109.7032785 16.49130249 110.79893494 C16.4799527 111.7649765 16.46860291 112.73101807 16.45690918 113.72633362 C16.45318047 114.56864312 16.44945175 115.41095263 16.44561005 116.27878666 C16.31918373 116.94991206 16.19275742 117.62103746 16.0625 118.3125 C12.60153844 120.6198077 11.23308903 120.56944718 7.15234375 120.578125 C5.42081055 120.58199219 5.42081055 120.58199219 3.65429688 120.5859375 C2.44837891 120.57820313 1.24246094 120.57046875 0 120.5625 C-1.81467773 120.57410156 -1.81467773 120.57410156 -3.66601562 120.5859375 C-4.81908203 120.58335937 -5.97214844 120.58078125 -7.16015625 120.578125 C-8.21984619 120.57586914 -9.27953613 120.57361328 -10.37133789 120.57128906 C-12.9375 120.3125 -12.9375 120.3125 -14.9375 118.3125 C-15.18359566 116.25478935 -15.18359566 116.25478935 -15.17800903 113.66818237 C-15.18075836 112.68939117 -15.18350769 111.71059998 -15.18634033 110.70214844 C-15.17914978 109.62465332 -15.17195923 108.5471582 -15.16455078 107.43701172 C-15.16484283 106.30530548 -15.16513489 105.17359924 -15.16543579 104.00759888 C-15.16403812 100.2523848 -15.14845626 96.49736708 -15.1328125 92.7421875 C-15.12908393 90.14429838 -15.12623622 87.54640787 -15.12423706 84.94851685 C-15.11737089 78.8003341 -15.10159462 72.65223287 -15.08153808 66.50408089 C-15.05920136 59.50538685 -15.04819127 52.50668946 -15.03814721 45.50796866 C-15.01722897 31.10944098 -14.98203909 16.71097301 -14.9375 2.3125 C-9.97401171 -0.32390164 -5.5431168 -0.01798545 0 0 Z M-12.9375 3.3125 C-13.88842756 6.16528268 -14.0631146 7.92297669 -14.06448364 10.88052368 C-14.06730347 11.81717361 -14.07012329 12.75382355 -14.07302856 13.71885681 C-14.07100433 14.74443192 -14.0689801 15.77000702 -14.06689453 16.82666016 C-14.06864685 17.90813828 -14.07039917 18.98961639 -14.07220459 20.10386658 C-14.07661392 23.6864481 -14.07368873 27.26898046 -14.0703125 30.8515625 C-14.0709857 33.33352671 -14.07195587 35.81549085 -14.07321167 38.29745483 C-14.07487649 44.16813785 -14.07137103 50.03880293 -14.0660609 55.90948331 C-14.06230265 60.59884248 -14.06363715 65.28818067 -14.06787109 69.97753906 C-14.07364986 76.43244411 -14.07458507 82.88732882 -14.07131577 89.34223557 C-14.07064639 91.80872986 -14.07147527 94.275225 -14.07379532 96.74171829 C-14.07632007 100.18021216 -14.07248403 103.61863999 -14.06689453 107.05712891 C-14.06891876 108.08675247 -14.07094299 109.11637604 -14.07302856 110.17720032 C-14.07020874 111.1082106 -14.06738892 112.03922089 -14.06448364 112.9984436 C-14.06410662 113.81217752 -14.06372959 114.62591145 -14.06334114 115.46430397 C-14.13980473 117.32934149 -14.13980473 117.32934149 -12.9375 118.3125 C-10.93785018 118.40008003 -8.9351389 118.41946576 -6.93359375 118.41015625 C-5.71865234 118.40693359 -4.50371094 118.40371094 -3.25195312 118.40039062 C-1.97255859 118.39201172 -0.69316406 118.38363281 0.625 118.375 C2.54989258 118.36823242 2.54989258 118.36823242 4.51367188 118.36132812 C7.69666022 118.34949545 10.87955762 118.33301068 14.0625 118.3125 C14.08585924 103.77860024 14.10342759 89.2447034 14.11431217 74.71078873 C14.11946869 67.96245954 14.12649914 61.21414201 14.13793945 54.46582031 C14.14897016 47.9560119 14.15478089 41.44621106 14.15737724 34.93639374 C14.15922805 32.45004841 14.1628421 29.96370376 14.16823006 27.47736359 C14.17546561 24.00084487 14.17648987 20.52437657 14.17602539 17.04785156 C14.17962067 16.01494995 14.18321594 14.98204834 14.18692017 13.91784668 C14.1855455 12.96996277 14.18417084 12.02207886 14.18275452 11.04547119 C14.18367631 10.22323185 14.1845981 9.40099251 14.18554783 8.55383682 C14.06448653 6.34868505 13.67426338 4.42944269 13.0625 2.3125 C9.10418191 2.28357143 5.14589083 2.26572573 1.1875 2.25 C0.05957031 2.24162109 -1.06835938 2.23324219 -2.23046875 2.22460938 C-3.30683594 2.22138672 -4.38320312 2.21816406 -5.4921875 2.21484375 C-6.98468018 2.20698853 -6.98468018 2.20698853 -8.50732422 2.19897461 C-10.94710773 2.1485585 -10.94710773 2.1485585 -12.9375 3.3125 Z " fill="#000000" transform="translate(183.9375,73.6875)"/>
<path d="M0 0 C9.97635702 7.99242239 13.7830808 19.25559721 15.75 31.52734375 C16.38738036 38.05947748 16.26818463 44.62059224 16.2109375 51.17578125 C16.20854636 53.00900136 16.20764917 54.84222396 16.2081604 56.67544556 C16.20506197 60.47910339 16.18870912 64.28237633 16.16162109 68.0859375 C16.12730421 72.96622975 16.1200037 77.84610832 16.12151146 82.72650719 C16.12096922 86.49421143 16.11003113 90.26182491 16.09550858 94.02949905 C16.08914366 95.83088115 16.0852024 97.63227349 16.08372116 99.43366623 C16.07940404 101.93431168 16.06194801 104.43450891 16.04052734 106.93505859 C16.0418869 108.05073463 16.0418869 108.05073463 16.04327393 109.18894958 C15.97899231 114.29835144 15.97899231 114.29835144 13.75 116.52734375 C11.07617187 116.78613281 11.07617187 116.78613281 7.71875 116.79296875 C6.51605469 116.79554688 5.31335938 116.798125 4.07421875 116.80078125 C2.81222656 116.79304688 1.55023438 116.7853125 0.25 116.77734375 C-1.01199219 116.78507812 -2.27398437 116.7928125 -3.57421875 116.80078125 C-5.37826172 116.79691406 -5.37826172 116.79691406 -7.21875 116.79296875 C-8.32669922 116.79071289 -9.43464844 116.78845703 -10.57617188 116.78613281 C-13.25 116.52734375 -13.25 116.52734375 -15.25 114.52734375 C-15.46715601 112.06023732 -15.5613626 109.70184593 -15.56884766 107.23193359 C-15.57889328 106.48061661 -15.5889389 105.72929962 -15.59928894 104.95521545 C-15.63023551 102.46624534 -15.64718765 99.97738332 -15.6640625 97.48828125 C-15.68276495 95.76477114 -15.70233766 94.04127027 -15.7227478 92.31777954 C-15.77417265 87.77715494 -15.81374278 83.23650061 -15.85089111 78.69573975 C-15.89086604 74.06401149 -15.941988 69.43240797 -15.9921875 64.80078125 C-16.08906927 55.70972291 -16.17343467 46.6185943 -16.25 37.52734375 C-15.59 37.85734375 -14.93 38.18734375 -14.25 38.52734375 C-13.92 63.27734375 -13.59 88.02734375 -13.25 113.52734375 C0.115 114.02234375 0.115 114.02234375 13.75 114.52734375 C13.75 85.48734375 13.75 56.44734375 13.75 26.52734375 C13.09 26.52734375 12.43 26.52734375 11.75 26.52734375 C11.5953125 24.91859375 11.5953125 24.91859375 11.4375 23.27734375 C10.75397898 19.54904729 10.07532085 18.33710644 7.75 15.52734375 C7.564375 14.56828125 7.564375 14.56828125 7.375 13.58984375 C6.40847385 10.40030745 4.15339786 8.75907034 1.75 6.52734375 C-0.0625 4.83984375 -0.0625 4.83984375 -1.25 3.52734375 C-1.25 2.86734375 -1.25 2.20734375 -1.25 1.52734375 C-2.03375 1.38296875 -2.8175 1.23859375 -3.625 1.08984375 C-6.25 0.52734375 -6.25 0.52734375 -8.25 -0.47265625 C-8.25 -1.13265625 -8.25 -1.79265625 -8.25 -2.47265625 C-11.47909006 -2.53099978 -14.70804338 -2.5663674 -17.9375 -2.59765625 C-18.84951172 -2.61441406 -19.76152344 -2.63117188 -20.70117188 -2.6484375 C-28.4679675 -2.76137397 -28.4679675 -2.76137397 -34.9375 1.15234375 C-35.370625 1.60609375 -35.80375 2.05984375 -36.25 2.52734375 C-36.91 2.52734375 -37.57 2.52734375 -38.25 2.52734375 C-38.58 3.51734375 -38.91 4.50734375 -39.25 5.52734375 C-39.91 5.52734375 -40.57 5.52734375 -41.25 5.52734375 C-41.311875 6.14609375 -41.37375 6.76484375 -41.4375 7.40234375 C-42.25 9.52734375 -42.25 9.52734375 -44.8125 10.77734375 C-45.616875 11.02484375 -46.42125 11.27234375 -47.25 11.52734375 C-45.63514901 5.60622347 -41.26369334 1.39617035 -36.15234375 -1.7734375 C-24.55010372 -7.73720574 -10.99770978 -7.1981538 0 0 Z " fill="#000001" transform="translate(297.25,77.47265625)"/>
<path d="M0 0 C3 2.4375 3 2.4375 5 5 C5.99 5.66 6.98 6.32 8 7 C8 8.32 8 9.64 8 11 C8.66 11 9.32 11 10 11 C15.32858248 27.17605397 17.74602849 47.23129915 10 63 C9.34 63 8.68 63 8 63 C7.896875 63.763125 7.79375 64.52625 7.6875 65.3125 C6.94348803 68.22091043 6.20194413 69.07329888 4 71 C3.67 71.66 3.34 72.32 3 73 C-2.24036019 76.48109642 -9.02946941 75.86055692 -15 75 C-19.94224099 72.5475154 -22.89738558 68.925115 -25 63.875 C-25.9187917 60.86698132 -26.29617684 58.15921958 -26 55 C-26.66 54.67 -27.32 54.34 -28 54 C-29.43509221 51.12981559 -29.11158506 48.66456277 -29.09765625 45.4609375 C-29.09443359 44.15898437 -29.09121094 42.85703125 -29.08789062 41.515625 C-29.07953466 40.13541601 -29.07106971 38.75520768 -29.0625 37.375 C-29.05748501 35.98698074 -29.0529221 34.59895978 -29.04882812 33.2109375 C-29.03700976 29.80724868 -29.02053434 26.40364561 -29 23 C-28.34 23 -27.68 23 -27 23 C-27.33 21.35 -27.66 19.7 -28 18 C-27.67 18.66 -27.34 19.32 -27 20 C-26.34 20 -25.68 20 -25 20 C-25.165 21.155 -25.33 22.31 -25.5 23.5 C-27.0974603 38.20126512 -27.29862879 54.20124015 -19 67 C-16.1356369 70.26219131 -13.80279321 71.24356147 -9.625 71.9375 C-4.99123768 72.22182704 -1.98371847 71.55559298 2 69 C11.55607619 57.94665841 11.59508639 43.91586629 11 30 C10.1500102 21.0482087 8.3744221 12.95054295 2.4375 6 C-1.64560201 2.64976245 -5.41303924 2.64908069 -10.49609375 2.73046875 C-14.32593552 3.14272941 -16.2259836 4.35807962 -19 7 C-20.59171897 9.5720492 -21.8077831 12.22538613 -23 15 C-23.6592284 16.33702661 -24.32386054 17.67144528 -25 19 C-25.66 17.68 -26.32 16.36 -27 15 C-26.34 15 -25.68 15 -25 15 C-24.67 13.02 -24.34 11.04 -24 9 C-23.34 9 -22.68 9 -22 9 C-21.5978125 7.7934375 -21.5978125 7.7934375 -21.1875 6.5625 C-20.795625 5.716875 -20.40375 4.87125 -20 4 C-19.01 3.67 -18.02 3.34 -17 3 C-17 2.34 -17 1.68 -17 1 C-11.38408094 -1.58028713 -5.91779549 -1.42749876 0 0 Z " fill="#000103" transform="translate(385,97)"/>
<path d="M0 0 C4.22457709 4.38789837 4.90970563 8.92531161 4.828125 14.82421875 C4.82425781 16.04625 4.82039062 17.26828125 4.81640625 18.52734375 C4.515625 21.57421875 4.515625 21.57421875 2.515625 23.57421875 C2.45503906 22.465625 2.39445313 21.35703125 2.33203125 20.21484375 C2.24759549 18.75129055 2.16294901 17.2877495 2.078125 15.82421875 C2.03880859 15.09460938 1.99949219 14.365 1.95898438 13.61328125 C1.74459577 8.49430827 1.74459577 8.49430827 0.515625 3.57421875 C-2.97234988 1.78150484 -2.97234988 1.78150484 -6.484375 0.57421875 C-6.484375 -0.08578125 -6.484375 -0.74578125 -6.484375 -1.42578125 C-7.350625 -1.14734375 -7.350625 -1.14734375 -8.234375 -0.86328125 C-10.69130025 -0.38554579 -12.12835034 -0.66848761 -14.484375 -1.42578125 C-14.484375 -2.08578125 -14.484375 -2.74578125 -14.484375 -3.42578125 C-28.18922909 -3.76050652 -41.11851424 -3.72793508 -54.484375 -0.42578125 C-54.484375 0.23421875 -54.484375 0.89421875 -54.484375 1.57421875 C-57.124375 2.23421875 -59.764375 2.89421875 -62.484375 3.57421875 C-62.484375 4.23421875 -62.484375 4.89421875 -62.484375 5.57421875 C-63.804375 5.57421875 -65.124375 5.57421875 -66.484375 5.57421875 C-66.484375 6.23421875 -66.484375 6.89421875 -66.484375 7.57421875 C-67.474375 7.57421875 -68.464375 7.57421875 -69.484375 7.57421875 C-69.814375 10.54421875 -70.144375 13.51421875 -70.484375 16.57421875 C-69.84113281 16.45304687 -69.19789063 16.331875 -68.53515625 16.20703125 C-29.41685268 8.95256696 -29.41685268 8.95256696 -19.484375 15.57421875 C-19.484375 16.23421875 -19.484375 16.89421875 -19.484375 17.57421875 C-18.494375 17.90421875 -17.504375 18.23421875 -16.484375 18.57421875 C-16.234375 26.19921875 -16.234375 26.19921875 -18.484375 29.57421875 C-18.92176196 31.28866764 -19.29286188 33.02089659 -19.609375 34.76171875 C-19.77695312 35.66277344 -19.94453125 36.56382812 -20.1171875 37.4921875 C-20.23835938 38.17925781 -20.35953125 38.86632812 -20.484375 39.57421875 C-21.474375 39.90421875 -22.464375 40.23421875 -23.484375 40.57421875 C-22.640678 36.05265815 -21.39994019 31.70284275 -20.10546875 27.29296875 C-19.48480736 24.57611136 -19.22320342 22.3473861 -19.484375 19.57421875 C-23.29187492 15.76671883 -29.31527956 16.00059017 -34.484375 15.57421875 C-43.33727867 15.63533347 -51.96908745 16.72549603 -60.703125 18.15234375 C-69.10014965 19.42604974 -69.10014965 19.42604974 -72.921875 17.07421875 C-73.4375 16.57921875 -73.953125 16.08421875 -74.484375 15.57421875 C-74.41493519 12.65774661 -74.12748889 10.41306295 -72.31640625 8.05078125 C-55.28181159 -7.84817377 -19.8051036 -12.71273542 0 0 Z " fill="#000102" transform="translate(518.484375,237.42578125)"/>
<path d="M0 0 C1.24072266 -0.01224609 2.48144531 -0.02449219 3.75976562 -0.03710938 C5.54737305 -0.04000977 5.54737305 -0.04000977 7.37109375 -0.04296875 C8.46220459 -0.04707764 9.55331543 -0.05118652 10.67749023 -0.05541992 C13.5140908 0.18342391 15.15781761 0.71819429 17.5625 2.1875 C17.1712221 7.53153235 14.15565739 10.72929673 10.9375 14.75 C9.76081769 16.25580674 8.5850771 17.76234972 7.41015625 19.26953125 C6.7877002 20.06311035 6.16524414 20.85668945 5.52392578 21.67431641 C2.09850098 26.06332847 -1.26754215 30.49639876 -4.625 34.9375 C-5.59590576 36.20509155 -5.59590576 36.20509155 -6.58642578 37.49829102 C-7.49303955 38.69796509 -7.49303955 38.69796509 -8.41796875 39.921875 C-9.22077271 40.97713379 -9.22077271 40.97713379 -10.03979492 42.05371094 C-11.56986247 44.38956951 -12.61024045 46.51912749 -13.4375 49.1875 C-12.65898021 52.4427429 -12.65898021 52.4427429 -11.4375 55.1875 C-12.4275 55.6825 -12.4275 55.6825 -13.4375 56.1875 C-13.746875 55.40375 -14.05625 54.62 -14.375 53.8125 C-15.36625038 51.26419872 -15.36625038 51.26419872 -16.4375 49.1875 C-15.66015625 47.0234375 -15.66015625 47.0234375 -14.5 44.5625 C-14.11972656 43.74523437 -13.73945312 42.92796875 -13.34765625 42.0859375 C-13.04730469 41.45945313 -12.74695313 40.83296875 -12.4375 40.1875 C-11.7775 40.1875 -11.1175 40.1875 -10.4375 40.1875 C-10.210625 39.300625 -9.98375 38.41375 -9.75 37.5 C-8.24774151 33.70858572 -6.33131447 32.01073363 -3.4375 29.1875 C-2.9425 28.135625 -2.4475 27.08375 -1.9375 26 C-0.4375 23.1875 -0.4375 23.1875 2.25 21.8125 C3.3946875 21.503125 3.3946875 21.503125 4.5625 21.1875 C4.5625 20.1975 4.5625 19.2075 4.5625 18.1875 C5.2225 18.1875 5.8825 18.1875 6.5625 18.1875 C6.8925 16.8675 7.2225 15.5475 7.5625 14.1875 C8.2225 14.1875 8.8825 14.1875 9.5625 14.1875 C10.2225 12.2075 10.8825 10.2275 11.5625 8.1875 C12.2225 8.1875 12.8825 8.1875 13.5625 8.1875 C13.8925 6.2075 14.2225 4.2275 14.5625 2.1875 C5.3225 2.1875 -3.9175 2.1875 -13.4375 2.1875 C-13.7675 3.1775 -14.0975 4.1675 -14.4375 5.1875 C-15.22125 5.6 -16.005 6.0125 -16.8125 6.4375 C-20.30718907 8.76729271 -20.94320671 11.34503154 -22.4375 15.1875 C-23.4275 15.6825 -23.4275 15.6825 -24.4375 16.1875 C-25.15909424 17.83113134 -25.83101421 19.49800386 -26.4375 21.1875 C-27.0975 21.1875 -27.7575 21.1875 -28.4375 21.1875 C-28.67984375 21.73019531 -28.9221875 22.27289063 -29.171875 22.83203125 C-31.13911179 27.03132517 -32.59346435 29.49667504 -36.4375 32.1875 C-37.54386395 34.57818734 -37.54386395 34.57818734 -38.4375 37.1875 C-39.875 40 -39.875 40 -41.4375 42.1875 C-42.4275 42.1875 -43.4175 42.1875 -44.4375 42.1875 C-44.4375 42.8475 -44.4375 43.5075 -44.4375 44.1875 C-45.0975 43.8575 -45.7575 43.5275 -46.4375 43.1875 C-40.60619237 34.60998537 -34.70101894 26.09393805 -28.625 17.6875 C-28.0988208 16.95934082 -27.5726416 16.23118164 -27.03051758 15.48095703 C-26.01142074 14.0758265 -24.98881106 12.67323582 -23.96240234 11.2734375 C-22.90556696 9.82777604 -21.85972532 8.37403797 -20.82275391 6.9140625 C-20.29987793 6.18960938 -19.77700195 5.46515625 -19.23828125 4.71875 C-18.77204346 4.06455078 -18.30580566 3.41035156 -17.82543945 2.73632812 C-13.86662489 -1.6813886 -5.40065072 0.00279682 0 0 Z " fill="#010102" transform="translate(141.4375,73.8125)"/>
<path d="M0 0 C1.19625 0.00128906 2.3925 0.00257812 3.625 0.00390625 C7.19694537 0.46280201 9.16731063 1.24323873 12 3.4375 C12 4.0975 12 4.7575 12 5.4375 C12.66 5.4375 13.32 5.4375 14 5.4375 C16 8.4375 16 8.4375 16 11.4375 C16.66 11.4375 17.32 11.4375 18 11.4375 C20.3938068 23.44928055 20.3938068 23.44928055 20 28.4375 C17.98287481 30.45462519 13.90047804 29.62540636 11.1328125 29.640625 C10.34228485 29.64632507 9.5517572 29.65202515 8.73727417 29.65789795 C7.06102849 29.66736208 5.38476408 29.67388752 3.70849609 29.67773438 C1.14257317 29.68743357 -1.42254677 29.71843994 -3.98828125 29.75 C-5.61457856 29.75653043 -7.24088162 29.76178074 -8.8671875 29.765625 C-10.02044022 29.7841452 -10.02044022 29.7841452 -11.19699097 29.80303955 C-16.49615174 29.78086826 -16.49615174 29.78086826 -19.00366211 28.07202148 C-20.4670324 25.67131967 -20.07927493 23.99242449 -19.6875 21.25 C-19.56761719 20.34894531 -19.44773437 19.44789062 -19.32421875 18.51953125 C-19.21722656 17.83246094 -19.11023438 17.14539063 -19 16.4375 C-18.01 16.1075 -17.02 15.7775 -16 15.4375 C-16.309375 14.5403125 -16.309375 14.5403125 -16.625 13.625 C-17 11.4375 -17 11.4375 -15 8.4375 C-14.34 8.4375 -13.68 8.4375 -13 8.4375 C-12.938125 7.86 -12.87625 7.2825 -12.8125 6.6875 C-10.65955776 0.72550611 -5.73506865 -0.09270046 0 0 Z M-10.625 7.0625 C-15.24374747 13.06687171 -16.93399125 18.97543873 -18 26.4375 C-6.12 26.4375 5.76 26.4375 18 26.4375 C17.04264052 16.86390521 16.00336415 10.99688694 9.75 3.875 C2.03238262 -0.15920908 -4.467979 0.905479 -10.625 7.0625 Z " fill="#010204" transform="translate(541,95.5625)"/>
<path d="M0 0 C0.66 0.33 1.32 0.66 2 1 C-2.67365905 19.08400737 -11.50296936 35.19556412 -27.875 45.3125 C-30.88798311 46.81899156 -31.60051445 47.08322616 -35 46.375 C-37 45 -37 45 -38 44 C-38.38502542 39.36890757 -37.64392227 36.61944569 -35.375 32.6015625 C-34.83359375 31.62832031 -34.2921875 30.65507812 -33.734375 29.65234375 C-33.16203125 28.65332031 -32.5896875 27.65429688 -32 26.625 C-31.14148438 25.09166016 -31.14148438 25.09166016 -30.265625 23.52734375 C-28.85494465 21.01163046 -27.43288866 18.50310914 -26 16 C-24.39968656 19.20062687 -25.96826309 21.72271806 -27 25 C-26.34 24.67 -25.68 24.34 -25 24 C-25 26.31 -25 28.62 -25 31 C-25.66 31 -26.32 31 -27 31 C-27.33 31.66 -27.66 32.32 -28 33 C-28.64453125 33.11214844 -29.2890625 33.22429687 -29.953125 33.33984375 C-30.62859375 33.55769531 -31.3040625 33.77554688 -32 34 C-33.1375213 36.08034294 -33.1375213 36.08034294 -33.75 38.5625 C-33.99234375 39.38878906 -34.2346875 40.21507812 -34.484375 41.06640625 C-34.65453125 41.70449219 -34.8246875 42.34257812 -35 43 C-30.64917679 42.34078436 -26.92126804 40.99762711 -23 39 C-21.8499169 37.03327085 -21.8499169 37.03327085 -21 35 C-20.175 34.525625 -19.35 34.05125 -18.5 33.5625 C-15.43434413 31.64646508 -15.19140496 30.3359339 -14 27 C-12 24.1875 -12 24.1875 -10 22 C-9.34 22 -8.68 22 -8 22 C-7.87625 21.195625 -7.7525 20.39125 -7.625 19.5625 C-7.41875 18.716875 -7.2125 17.87125 -7 17 C-6.34 16.67 -5.68 16.34 -5 16 C-4.835 14.845 -4.67 13.69 -4.5 12.5 C-4.335 11.345 -4.17 10.19 -4 9 C-3.34 8.67 -2.68 8.34 -2 8 C-1.31527335 6.11235097 -1.31527335 6.11235097 -0.875 3.9375 C-0.70742188 3.20402344 -0.53984375 2.47054688 -0.3671875 1.71484375 C-0.18542969 0.86599609 -0.18542969 0.86599609 0 0 Z " fill="#010204" transform="translate(520,263)"/>
<path d="M0 0 C4.3417553 2.50319888 6.9008125 4.85850468 8.47265625 9.76171875 C9.99269615 16.28787806 9.89565431 21.35278262 6.6875 27.3125 C3.31335562 31.62390671 -0.12849701 33.61429212 -5.3125 35.3125 C-10.81157329 35.9123989 -15.50729813 35.01794979 -20.3125 32.3125 C-24.43001684 28.69407611 -26.96180672 24.47413481 -27.56640625 19.0234375 C-27.85551156 12.84964032 -26.99505065 9.2889198 -23.3125 4.3125 C-16.64834327 -2.0099051 -8.48668162 -3.91084023 0 0 Z M-18.72265625 2.75 C-19.95372802 4.24307829 -21.13577768 5.77622364 -22.3125 7.3125 C-23.3025 7.8075 -23.3025 7.8075 -24.3125 8.3125 C-25.40756492 11.59769475 -25.41210608 14.04913415 -25.375 17.5 C-25.36597656 18.58667969 -25.35695312 19.67335938 -25.34765625 20.79296875 C-25.33605469 21.62441406 -25.32445312 22.45585938 -25.3125 23.3125 C-24.3225 23.6425 -23.3325 23.9725 -22.3125 24.3125 C-21.62763275 25.63657669 -20.96379797 26.97159241 -20.3125 28.3125 C-17.91790382 31.53599485 -16.59109754 32.24639211 -12.625 33.1875 C-7.20352591 33.57114249 -1.96553111 33.22179436 2.5546875 29.96875 C6.45542641 26.01201962 7.56704738 22.23905257 7.79296875 16.75 C7.63776027 13.16295968 7.13537854 10.62193665 5.6875 7.3125 C3.87148635 6.11246657 3.87148635 6.11246657 1.6875 5.3125 C0.945 4.466875 0.2025 3.62125 -0.5625 2.75 C-5.58825196 -1.70464378 -13.67381335 -2.39674291 -18.72265625 2.75 Z " fill="#010203" transform="translate(193.3125,31.6875)"/>
<path d="M0 0 C3.13526563 2.64975518 4.68387172 6.00161219 6.44140625 9.625 C6.92761444 10.60788498 6.92761444 10.60788498 7.42364502 11.61062622 C8.11650493 13.01244896 8.80672494 14.41557904 9.49453735 15.81988525 C11.28099081 19.46671087 13.08651442 23.1040734 14.890625 26.7421875 C15.2453035 27.45857391 15.59998199 28.17496033 15.96540833 28.91305542 C19.54800936 36.13540869 23.28822897 43.26953947 27.08203125 50.3828125 C27.72165644 51.58838134 28.36099912 52.79410013 29 54 C29.87978516 55.65708984 29.87978516 55.65708984 30.77734375 57.34765625 C32 60 32 60 31.75 62.3125 C31 64 31 64 30 65 C25.92191156 65.26614584 21.8401851 65.27125966 17.75415039 65.29516602 C15.70585688 65.31234603 13.65919178 65.35620989 11.61132812 65.40039062 C10.32033203 65.40876953 9.02933594 65.41714844 7.69921875 65.42578125 C6.51158936 65.44036377 5.32395996 65.45494629 4.1003418 65.4699707 C0.36377712 64.90355705 -0.70586335 63.93600574 -3 61 C-4.8125 57.875 -4.8125 57.875 -6 55 C-5.67 54.34 -5.34 53.68 -5 53 C-4.34 53 -3.68 53 -3 53 C-2.34 55.97 -1.68 58.94 -1 62 C9.23 62.33 19.46 62.66 30 63 C29.34 60.36 28.68 57.72 28 55 C27.01 54.67 26.02 54.34 25 54 C23.88090214 51.66854614 22.91316699 49.40961342 22 47 C20.06772649 42.05602075 20.06772649 42.05602075 17.0625 37.75 C13.62332235 33.1644298 11.62757096 27.35664101 10.57421875 21.72265625 C10.38472656 21.15417969 10.19523437 20.58570313 10 20 C9.01 19.67 8.02 19.34 7 19 C6.0859375 17.2578125 6.0859375 17.2578125 5.375 15.125 C5.13523438 14.42632812 4.89546875 13.72765625 4.6484375 13.0078125 C4.43445313 12.34523437 4.22046875 11.68265625 4 11 C3.23790232 7.90041465 3.23790232 7.90041465 0.875 6.0625 C0.25625 5.381875 -0.3625 4.70125 -1 4 C-0.75 1.75 -0.75 1.75 0 0 Z " fill="#000102" transform="translate(130,129)"/>
<path d="M0 0 C1.60031344 3.20062687 0.03173691 5.72271806 -1 9 C-0.34 8.67 0.32 8.34 1 8 C1 10.31 1 12.62 1 15 C0.34 15 -0.32 15 -1 15 C-1.33 15.66 -1.66 16.32 -2 17 C-3.33333333 17.33333333 -4.66666667 17.66666667 -6 18 C-6.33 18.66 -6.66 19.32 -7 20 C-7.66 20 -8.32 20 -9 20 C-8.484897 14.68544522 -6.63835295 11.09376879 -3.9375 6.625 C-3.37192383 5.66400391 -3.37192383 5.66400391 -2.79492188 4.68359375 C-1.87160383 3.11745934 -0.93694607 1.55801966 0 0 Z " fill="#080A0D" transform="translate(494,279)"/>
<path d="M0 0 C0.33 0.66 0.66 1.32 1 2 C1.639375 2.103125 2.27875 2.20625 2.9375 2.3125 C5 3 5 3 6.3125 5.3125 C7.019574 8.07651653 6.97533063 9.36660729 6 12 C3.02404533 9.44918171 1.55997434 6.56565563 0 3 C0 2.01 0 1.02 0 0 Z " fill="#040509" transform="translate(110,154)"/>
<path d="M0 0 C0.99 0.33 1.98 0.66 3 1 C3.12375 1.969375 3.2475 2.93875 3.375 3.9375 C3.684375 5.4534375 3.684375 5.4534375 4 7 C4.66 7.33 5.32 7.66 6 8 C7.03145371 9.30915279 8.03542166 10.64082143 9 12 C8.34 13.32 7.68 14.64 7 16 C5.82845707 13.71070947 4.66261926 11.41881638 3.5 9.125 C3.16613281 8.47402344 2.83226563 7.82304687 2.48828125 7.15234375 C0 2.2265625 0 2.2265625 0 0 Z " fill="#010306" transform="translate(116,166)"/>
<path d="M0 0 C0 0.66 0 1.32 0 2 C-0.63808594 2.12117187 -1.27617187 2.24234375 -1.93359375 2.3671875 C-3.17302734 2.61855469 -3.17302734 2.61855469 -4.4375 2.875 C-5.26121094 3.03742188 -6.08492188 3.19984375 -6.93359375 3.3671875 C-7.61550781 3.57601562 -8.29742187 3.78484375 -9 4 C-9.33 4.66 -9.66 5.32 -10 6 C-10.66 6 -11.32 6 -12 6 C-12 5.34 -12 4.68 -12 4 C-13.98 4.33 -15.96 4.66 -18 5 C-15.24633094 2.24633094 -12.7923872 2.14435724 -9 1.375 C-7.741875 1.11460937 -6.48375 0.85421875 -5.1875 0.5859375 C-2 0 -2 0 0 0 Z " fill="#080B11" transform="translate(482,233)"/>
<path d="M0 0 C-2.95664519 1.4783226 -5.74229737 1.06032783 -9 1 C-9 1.66 -9 2.32 -9 3 C-11.97 2.67 -14.94 2.34 -18 2 C-18 1.67 -18 1.34 -18 1 C-15.56348622 0.63737003 -13.12623023 0.28461036 -10.6875 -0.0625 C-9.99720703 -0.16626953 -9.30691406 -0.27003906 -8.59570312 -0.37695312 C-5.30415164 -0.83808836 -3.19783876 -1.06594625 0 0 Z " fill="#080B11" transform="translate(381,298)"/>
<path d="M0 0 C2.0625 0.4375 2.0625 0.4375 4 1 C5.125 4.75 5.125 4.75 4 7 C1.9375 7.625 1.9375 7.625 0 8 C0.33 7.01 0.66 6.02 1 5 C0.12516085 2.83284443 0.12516085 2.83284443 -1 1 C-0.67 0.67 -0.34 0.34 0 0 Z " fill="#04060B" transform="translate(246,88)"/>
<path d="M0 0 C1.32 0 2.64 0 4 0 C4 0.66 4 1.32 4 2 C0.04 3.32 -3.92 4.64 -8 6 C-8 5.34 -8 4.68 -8 4 C-6.865625 3.525625 -5.73125 3.05125 -4.5625 2.5625 C-1.24259834 1.36377917 -1.24259834 1.36377917 0 0 Z " fill="#05070D" transform="translate(418,313)"/>
<path d="M0 0 C3 0 3 0 4.6875 1.5 C5.120625 1.995 5.55375 2.49 6 3 C5.34 4.32 4.68 5.64 4 7 C1.49962266 4.82575883 0.56371414 3.26954202 0 0 Z " fill="#05080E" transform="translate(104,145)"/>
<path d="M0 0 C-0.99 0.33 -1.98 0.66 -3 1 C-3 1.66 -3 2.32 -3 3 C-5.31 3.33 -7.62 3.66 -10 4 C-6.87839899 0.56623888 -4.64008112 -1.54669371 0 0 Z " fill="#151A1D" transform="translate(556,171)"/>
</svg>
